<svg width="106" height="18" viewBox="0 0 106 18" fill="none" xmlns="http://www.w3.org/2000/svg">
<path d="M7 3.03918L5.66802 2.15619L0 5.91359L5.66802 9.671L7 8.78801L2.67341 5.91359L7 3.03918Z" fill="#EDF2F7" fill-opacity="0.3"/>
<path d="M100.332 2.15619L99 3.03918L103.327 5.91359L99 8.78801L100.332 9.671L106 5.91359L100.332 2.15619Z" fill="#CBD5E0"/>
<ellipse cx="54" cy="6.85292" rx="4" ry="3.7574" fill="#D9D9D9"/>
<ellipse cx="29.0105" cy="6.55441" rx="1.85789" ry="1.74521" fill="#EDF2F7" fill-opacity="0.3"/>
<ellipse cx="79.5997" cy="6.55441" rx="1.85789" ry="1.74521" fill="#EDF2F7" fill-opacity="0.3"/>
<mask id="path-6-inside-1_1_6715" fill="white">
<path d="M45.6117 1.13229e-05C43.958 1.93539 43.0898 4.35959 43.162 6.84035C43.2341 9.32111 44.2419 11.6972 46.0056 13.5449C47.7693 15.3926 50.1742 16.5918 52.7917 16.9288C55.4091 17.2657 58.0689 16.7184 60.2968 15.3845L58.7254 13.0688C57.0818 14.0529 55.1196 14.4566 53.1886 14.208C51.2576 13.9595 49.4833 13.0747 48.1822 11.7116C46.881 10.3485 46.1375 8.59554 46.0843 6.76538C46.0311 4.93521 46.6716 3.14677 47.8916 1.71895L45.6117 1.13229e-05Z"/>
</mask>
<path d="M45.6117 1.13229e-05C43.958 1.93539 43.0898 4.35959 43.162 6.84035C43.2341 9.32111 44.2419 11.6972 46.0056 13.5449C47.7693 15.3926 50.1742 16.5918 52.7917 16.9288C55.4091 17.2657 58.0689 16.7184 60.2968 15.3845L58.7254 13.0688C57.0818 14.0529 55.1196 14.4566 53.1886 14.208C51.2576 13.9595 49.4833 13.0747 48.1822 11.7116C46.881 10.3485 46.1375 8.59554 46.0843 6.76538C46.0311 4.93521 46.6716 3.14677 47.8916 1.71895L45.6117 1.13229e-05Z" stroke="#D9D9D9" stroke-width="4" mask="url(#path-6-inside-1_1_6715)"/>
</svg>
