<svg width="259" height="82" viewBox="0 0 259 82" fill="none" xmlns="http://www.w3.org/2000/svg">
<path d="M40.1842 68.9593V78.0674C40.1842 79.193 40.7038 80.2555 41.5923 80.9465C42.2326 81.4445 43.0205 81.7149 43.8316 81.7149H67.1019C68.4872 81.7149 69.8952 81.4852 71.0528 80.7242C73.1764 79.3283 74.3715 77.4355 75.8725 74.4978C76.5751 73.1228 76.9229 71.5937 76.9229 70.0496V35.3743C76.9229 34.1867 76.4802 33.0417 75.6813 32.1629L75.5838 32.0556C74.7411 31.1286 73.5465 30.6001 72.2937 30.6001C71.0065 30.6001 69.7824 31.158 68.9379 32.1295L42.6445 62.3786C41.0579 64.2039 40.1842 66.5409 40.1842 68.9593Z" fill="#EFF6FF" stroke="#EFF6FF" stroke-width="0.5"/>
<path d="M17.6809 31.3045L18.0027 31.0632C19.0947 30.2442 20.4229 29.8015 21.7879 29.8015C23.186 29.8015 24.5444 30.2659 25.6499 31.1217L31.5773 35.7107C31.9874 36.0282 32.4514 36.269 32.9471 36.4215C34.5922 36.9277 36.3807 36.4056 37.4951 35.0939L63.34 4.67471C64.8539 2.8928 67.1107 1.91657 69.446 2.03333C70.5137 2.08672 71.5722 2.34286 72.4915 2.88855C74.014 3.79228 75.0455 4.78207 76.4523 7.18299C76.9536 8.03858 77.1891 9.02252 77.1891 10.0142C77.1891 11.445 76.6798 12.8292 75.7523 13.9187L40.7193 55.0764C39.7042 56.269 38.2169 56.9562 36.6507 56.9562C35.3266 56.9562 34.0497 56.4645 33.0675 55.5765L17.351 41.3671C15.9555 40.1054 15.1592 38.312 15.1592 36.4307V36.3479C15.1592 35.3692 15.3871 34.404 15.8248 33.5286C16.2625 32.6532 16.898 31.8918 17.6809 31.3045Z" fill="#E83928" stroke="#DE0903" stroke-width="0.5"/>
<path d="M31.3807 63.3874L26.6548 58.298C24.7568 56.254 22.0935 55.0926 19.3041 55.0926H6.57459C5.21269 55.0926 3.80447 55.2783 2.69534 56.0686C1.8817 56.6483 1.31483 57.3517 0.83045 58.3868C0.379477 59.3506 0.250776 60.4268 0.250776 61.4909V73.1416C0.250776 74.2353 0.400471 75.335 0.844094 76.3346C1.82098 78.5358 3.08288 79.8067 5.4243 80.953C6.55632 81.5072 7.8197 81.7149 9.08009 81.7149H28.0728C29.5615 81.7149 31.1204 81.5011 32.2621 80.5457C32.3212 80.4963 32.3792 80.4458 32.4364 80.3939C33.7456 79.2071 34.061 77.3234 34.061 75.5563V70.2131C34.061 67.6811 33.1036 65.2428 31.3807 63.3874Z" fill="#FE8D17" stroke="#FF6600" stroke-width="0.5"/>
<path d="M115.661 32.8243C116.624 32.8243 117 33.3468 116.787 34.3917L116.151 37.2815C116.102 37.4774 116.012 37.6733 115.881 37.8692C115.506 38.3917 115.04 38.6529 114.485 38.6529H107.457L100.183 67.2081C99.9873 67.9101 99.4975 68.2693 98.7138 68.2856H94.5016C94.2077 68.2856 93.9465 68.1714 93.7179 67.9428C93.4893 67.7142 93.424 67.404 93.522 67.0122L100.746 38.6529H93.2771C93.1628 38.6529 93.0404 38.6447 92.9097 38.6284C92.273 38.5141 92.0852 37.9345 92.3465 36.8896L93.1301 33.8039C93.1955 33.559 93.2689 33.3631 93.3506 33.2162C93.5301 32.9549 93.9465 32.8243 94.5995 32.8243H115.661ZM122.396 52.906H127.71L128.567 40.3182L122.396 52.906ZM119.53 58.7346L115.318 67.355C114.942 68.0734 114.322 68.3999 113.457 68.3346L109.636 68.1877C109.62 68.1877 109.587 68.1877 109.538 68.1877C108.493 68.106 108.167 67.502 108.559 66.3754L124.918 34.8815C125.032 34.6529 125.171 34.4243 125.334 34.1957C125.971 33.3468 126.73 32.9223 127.612 32.9223L133.245 32.8733C133.555 32.857 133.84 32.9059 134.102 33.0202C134.853 33.3631 135.204 34.0978 135.155 35.2243L133.343 67.2081C133.245 67.8938 132.755 68.253 131.873 68.2856H127.906C127.791 68.2856 127.677 68.2775 127.563 68.2612C126.942 68.1305 126.681 67.6979 126.779 66.9632L127.318 58.7346H119.53ZM147.302 49.0611L149.138 48.7917C149.612 48.7264 149.881 48.6774 149.947 48.6448C151.285 48.1876 152.167 47.6244 152.592 46.955C153 46.2693 153.269 45.6815 153.4 45.1917C153.987 43.0039 154.281 41.1998 154.281 39.7794C154.281 39.5182 154.151 39.2815 153.89 39.0692C153.661 38.8733 153.383 38.7427 153.057 38.6774C152.861 38.6447 152.314 38.6203 151.416 38.6039C150.975 38.6039 150.494 38.6039 149.971 38.6039L147.302 49.0611ZM143.261 38.5549H141.596C141.367 38.5549 141.155 38.4978 140.959 38.3835C140.534 38.1223 140.404 37.7223 140.567 37.1835L141.449 33.8039C141.481 33.6733 141.538 33.5427 141.62 33.4121C141.881 33.0202 142.2 32.8243 142.575 32.8243H153.008C154.412 32.8243 155.661 33.0366 156.755 33.4611C159.22 34.4406 160.453 36.3509 160.453 39.1917C160.453 41.1345 160.069 43.2407 159.302 45.5101C158.469 47.9754 157.547 49.657 156.534 50.555C155.441 51.6325 154.387 52.4325 153.375 52.955L155.359 66.2285C155.392 66.4897 155.408 66.7346 155.408 66.9632C155.359 67.8448 154.902 68.2856 154.036 68.2856H150.167C150.004 68.2856 149.841 68.253 149.677 68.1877C148.992 67.8775 148.567 67.0938 148.404 65.8367L146.934 54.008H146.028L142.673 67.2081C142.477 67.9101 141.987 68.2693 141.204 68.2856H137.04C136.828 68.2856 136.64 68.2367 136.477 68.1387C136.053 67.8611 135.914 67.404 136.061 66.7673L143.261 38.5549ZM185.849 32.8243C186.812 32.8243 187.188 33.3468 186.975 34.3917L186.339 37.2815C186.29 37.4774 186.2 37.6733 186.069 37.8692C185.694 38.3917 185.228 38.6529 184.673 38.6529H177.645L170.371 67.2081C170.175 67.9101 169.685 68.2693 168.902 68.2856H164.69C164.396 68.2856 164.134 68.1714 163.906 67.9428C163.677 67.7142 163.612 67.404 163.71 67.0122L170.934 38.6529H163.465C163.351 38.6529 163.228 38.6447 163.098 38.6284C162.461 38.5141 162.273 37.9345 162.534 36.8896L163.318 33.8039C163.383 33.559 163.457 33.3631 163.539 33.2162C163.718 32.9549 164.134 32.8243 164.787 32.8243H185.849ZM189.547 33.9019C189.743 33.1998 190.232 32.8406 191.016 32.8243H195.179C195.392 32.8243 195.579 32.8733 195.743 32.9713C196.167 33.2488 196.306 33.706 196.159 34.3427L187.783 67.2081C187.588 67.9101 187.098 68.2693 186.314 68.2856H182.151C181.939 68.2856 181.751 68.2367 181.588 68.1387C181.163 67.8611 181.024 67.404 181.171 66.7673L189.547 33.9019ZM206.322 47.4937L207.228 47.5672C207.457 47.5672 207.669 47.5591 207.865 47.5427C210.347 47.3305 211.914 45.4937 212.567 42.0325C212.665 41.4774 212.706 40.9958 212.69 40.5876C212.624 39.2325 211.833 38.5549 210.314 38.5549H208.6L206.322 47.4937ZM201.89 38.5549H200.616C200.322 38.5549 200.045 38.4896 199.784 38.359C199.228 38.0815 199.016 37.7223 199.147 37.2815L200.077 33.8039C200.11 33.6733 200.167 33.5427 200.249 33.4121C200.51 33.0202 200.828 32.8243 201.204 32.8243H204.535H208.698H210.853C213.008 32.8243 214.828 33.1508 216.314 33.8039C218.943 34.9794 220.257 37.0202 220.257 39.9264C220.257 40.3672 220.233 40.8243 220.184 41.2978C219.939 43.5509 219.31 45.4937 218.298 47.1264C217.335 48.6774 216.053 49.7631 214.453 50.3835C214.747 50.5958 215.016 50.8407 215.261 51.1182C216.143 52.1958 216.437 54.0815 216.143 56.7754C216.028 57.7387 215.775 58.7672 215.384 59.8611C214.469 62.3428 213.22 64.2693 211.637 65.6407C210.086 67.0285 208.224 67.8611 206.053 68.1387C205.253 68.2367 203.506 68.2856 200.812 68.2856H199.832H198.559H195.669C195.457 68.2856 195.269 68.2367 195.106 68.1387C194.681 67.8611 194.543 67.404 194.69 66.7673L201.89 38.5549ZM202.575 62.2122L203.702 62.1632C204.584 62.1142 205.343 61.9754 205.979 61.7468C207.628 61.1591 208.812 59.7632 209.53 57.5591C210.2 55.404 210.069 53.9346 209.139 53.1509C208.633 52.7264 207.269 52.5142 205.049 52.5142L202.575 62.2122ZM227.849 33.9019C228.045 33.1998 228.535 32.8406 229.318 32.8243H233.482C233.694 32.8243 233.882 32.8733 234.045 32.9713C234.469 33.2488 234.608 33.706 234.461 34.3427L226.086 67.2081C225.89 67.9101 225.4 68.2693 224.616 68.2856H220.453C220.241 68.2856 220.053 68.2367 219.89 68.1387C219.465 67.8611 219.326 67.404 219.473 66.7673L227.849 33.9019ZM246.584 68.2856C245.375 68.2856 244.706 67.7305 244.575 66.6203L243.571 58.2203L239.384 67.453C239.286 67.6652 239.122 67.853 238.894 68.0163C238.649 68.1958 238.273 68.2856 237.767 68.2856H233.065C232.575 68.2856 232.241 68.1387 232.061 67.8448C231.833 67.4693 231.906 66.9305 232.282 66.2285L241.049 49.8938L237.767 34.7345C237.637 34.1468 237.661 33.6733 237.841 33.3141C238.004 32.9549 238.404 32.7753 239.041 32.7753H242.665C243.759 32.7753 244.429 33.3304 244.673 34.4406L246.29 43.7223L251.139 33.608C251.237 33.4121 251.408 33.2162 251.653 33.0202C251.865 32.857 252.241 32.7753 252.78 32.7753H257.408C257.931 32.7753 258.29 32.8896 258.486 33.1182C258.829 33.5427 258.78 34.1141 258.339 34.8325L248.347 51.8529L251.482 66.3265C251.629 66.9795 251.588 67.4856 251.359 67.8448C251.18 68.1387 250.812 68.2856 250.257 68.2856H246.584Z" fill="#EFF6FF"/>
<path d="M9.00556 39.8395C9.62458 42.0692 10.764 43.8421 13.3252 46.7972C13.6469 47.1684 13.8281 47.6432 13.8281 48.1344V48.2165C13.8281 48.6987 13.6366 49.161 13.2957 49.502C12.9548 49.8429 12.4924 50.0344 12.0102 50.0344H3.20845C2.50242 50.0344 1.81968 49.7818 1.28362 49.3224C0.628065 48.7605 0.250776 47.9401 0.250776 47.0767V11.3409C0.540887 6.34333 4.81959 1.93478 10.0968 0.482282C10.7377 0.30587 11.404 0.250776 12.0688 0.250776H52.51C53.6356 0.250776 54.6981 0.770443 55.3892 1.65892L55.4585 1.7481C55.9116 2.33056 56.1575 3.04739 56.1575 3.78528C56.1575 4.5955 55.8611 5.37772 55.3241 5.98444L36.4864 27.2686C35.9598 27.8635 35.2035 28.2041 34.4091 28.2041C33.8362 28.2041 33.2773 28.0268 32.8093 27.6964L29.0028 25.0095L26.1379 23.5016C24.6974 22.7434 23.0939 22.3473 21.466 22.3473H21.137C19.9998 22.3473 18.8709 22.5406 17.7985 22.9191L16.5921 23.3449C15.4684 23.7415 14.4243 24.3352 13.5089 25.098L12.816 25.6755C12.0748 26.2931 11.4265 27.0145 10.8914 27.8173L10.5845 28.2775C9.91278 29.2852 9.42903 30.4061 9.15672 31.5862L9.02678 32.1492C8.85608 32.8889 8.7699 33.6456 8.7699 34.4048V37.8389C8.7699 38.5133 8.82517 39.1897 9.00556 39.8395Z" fill="#249B5B" stroke="#00620F" stroke-width="0.5"/>
</svg>
