<svg width="69" height="60" viewBox="0 0 69 60" fill="none" xmlns="http://www.w3.org/2000/svg">
<path d="M46.1866 5.71193C46.6743 5.71193 47.07 6.10777 47.0701 6.59543C47.0701 7.08321 46.6744 7.47893 46.1866 7.47893C42.0666 7.47904 38.3689 10.235 37.1951 14.1791C37.0661 14.6139 36.6307 14.876 36.1922 14.7964L36.1883 14.8013L36.0963 14.7739C35.629 14.6345 35.3621 14.1428 35.5015 13.6752C36.8677 9.08391 41.123 5.71203 46.1866 5.71193Z" fill="#088586" stroke="#F9FFF9" stroke-width="0.3"/>
<path d="M56.4501 42.5185H52.0515C51.6467 42.5185 51.3184 42.1902 51.3184 41.7854C51.3184 41.3806 51.6467 41.0523 52.0515 41.0523H56.4501C62.5134 41.0523 67.4468 36.1189 67.4468 30.0556C67.4468 23.9923 62.5134 19.0589 56.4501 19.0589H56.3443C56.1317 19.0589 55.9296 18.9668 55.7903 18.806C55.651 18.6453 55.5882 18.4321 55.6185 18.2216C55.684 17.765 55.717 17.3063 55.717 16.8596C55.717 11.6048 51.4413 7.32912 46.1865 7.32912C44.1422 7.32912 42.1926 7.96797 40.5483 9.17707C40.1869 9.44256 39.6738 9.32474 39.4648 8.92728C34.808 0.0598119 22.6449 -1.131 16.339 6.58293C13.6826 9.83269 12.6388 14.0601 13.4752 18.1803C13.5673 18.6353 13.2191 19.0595 12.7567 19.0595H12.463C6.39965 19.0595 1.46629 23.9929 1.46629 30.0562C1.46629 36.1195 6.39965 41.0528 12.463 41.0528H16.8616C17.2664 41.0528 17.5947 41.3812 17.5947 41.786C17.5947 42.1907 17.2664 42.5191 16.8616 42.5191H12.463C5.59103 42.5191 0 36.9281 0 30.0561C0 23.377 5.2815 17.9079 11.8875 17.6063C11.2669 13.3317 12.4535 9.01994 15.2037 5.65503C21.9551 -2.60451 34.8937 -1.67872 40.3632 7.53126C42.108 6.43735 44.1046 5.86348 46.1862 5.86348C52.5528 5.86348 57.5977 11.2823 57.1562 17.6131C63.7013 17.9802 68.9127 23.4204 68.9127 30.0556C68.9127 36.9281 63.3217 42.5185 56.4498 42.5185L56.4501 42.5185Z" fill="#088586"/>
<path d="M34.3587 22.8927C44.5476 22.893 52.8368 31.1829 52.8368 41.3719C52.8366 51.5605 44.5474 59.8498 34.3587 59.8501C24.1698 59.8501 15.8798 51.5608 15.8795 41.3719C15.8795 31.1829 24.1695 22.8927 34.3587 22.8927ZM34.3587 24.6607C25.1443 24.6607 17.6475 32.1576 17.6475 41.3719C17.6478 50.5861 25.1446 58.0831 34.3587 58.0831C43.5726 58.0828 51.0696 50.5858 51.0698 41.3719C51.0698 32.1577 43.5727 24.661 34.3587 24.6607Z" fill="#088586" stroke="#F9FFF9" stroke-width="0.3"/>
<path d="M34.6943 34.1072C35.0734 34.1075 35.3811 34.4158 35.3811 34.795V48.7491C35.3811 49.1287 35.0734 49.4367 34.6943 49.4369C34.3149 49.4369 34.0064 49.1284 34.0064 48.7491V34.795C34.0064 34.4157 34.3149 34.1072 34.6943 34.1072Z" fill="#088586" stroke="#483EA8" stroke-width="0.3"/>
<path d="M34.208 34.31C34.4761 34.0418 34.9113 34.0418 35.1796 34.31L39.4728 38.6042C39.7411 38.8726 39.7412 39.3074 39.4728 39.5758L39.4718 39.5748C39.3377 39.7091 39.1624 39.7763 38.9875 39.7764C38.8121 39.7764 38.6352 39.7097 38.5012 39.5758L34.6933 35.7668L30.8853 39.5758C30.6173 39.844 30.182 39.8439 29.9138 39.5758C29.6455 39.3075 29.6456 38.8726 29.9138 38.6042L34.208 34.31Z" fill="#088586" stroke="#483EA8" stroke-width="0.3"/>
</svg>
