<svg preserveAspectRatio="none" width="100%" height="100%" overflow="visible" style="display: block;" viewBox="0 0 56 56" fill="none" xmlns="http://www.w3.org/2000/svg">
<g id="clarity:employee-line">
<path id="Vector" d="M25.5578 25.9622C23.4042 25.9622 21.2989 25.3236 19.5082 24.1271C17.7176 22.9306 16.3219 21.23 15.4978 19.2403C14.6736 17.2506 14.458 15.0613 14.8781 12.949C15.2983 10.8368 16.3353 8.89656 17.8582 7.37373C19.381 5.85089 21.3212 4.81382 23.4335 4.39367C25.5457 3.97352 27.7351 4.18916 29.7248 5.01331C31.7145 5.83747 33.4151 7.23312 34.6116 9.02379C35.808 10.8145 36.4467 12.9197 36.4467 15.0733C36.4467 17.9612 35.2994 20.7309 33.2574 22.7729C31.2153 24.815 28.4457 25.9622 25.5578 25.9622ZM25.5578 7.42C24.0195 7.42 22.5157 7.87616 21.2367 8.73079C19.9576 9.58542 18.9607 10.8001 18.372 12.2214C17.7834 13.6426 17.6293 15.2064 17.9294 16.7151C18.2296 18.2239 18.9703 19.6098 20.0581 20.6975C21.1458 21.7852 22.5317 22.526 24.0404 22.8261C25.5492 23.1262 27.113 22.9722 28.5342 22.3835C29.9554 21.7948 31.1701 20.7979 32.0248 19.5189C32.8794 18.2398 33.3356 16.7361 33.3356 15.1978C33.3356 14.1764 33.1344 13.165 32.7435 12.2214C32.3526 11.2777 31.7797 10.4203 31.0575 9.69806C30.3353 8.97582 29.4778 8.40292 28.5342 8.01205C27.5906 7.62118 26.5792 7.42 25.5578 7.42ZM34.2222 27.8444C25.8043 25.9491 16.9973 26.8614 9.14667 30.4422C8.06695 30.958 7.15596 31.7699 6.5198 32.7833C5.88363 33.7968 5.54847 34.9701 5.55333 36.1667V45.4222C5.55333 45.6265 5.59357 45.8288 5.67174 46.0175C5.74992 46.2062 5.8645 46.3777 6.00894 46.5222C6.15339 46.6666 6.32487 46.7812 6.5136 46.8594C6.70233 46.9375 6.90461 46.9778 7.10889 46.9778C7.31317 46.9778 7.51545 46.9375 7.70417 46.8594C7.8929 46.7812 8.06439 46.6666 8.20883 46.5222C8.35328 46.3777 8.46786 46.2062 8.54603 46.0175C8.62421 45.8288 8.66444 45.6265 8.66444 45.4222V36.1667C8.6509 35.5611 8.81443 34.9647 9.13497 34.4508C9.4555 33.9368 9.91911 33.5276 10.4689 33.2733C15.198 31.0892 20.3487 29.9688 25.5578 29.9911C28.4765 29.9877 31.3852 30.3323 34.2222 31.0178V27.8444ZM34.44 42.6378H43.9911V44.8156H34.44V42.6378Z" fill="var(--fill-0, white)"/>
<path id="Vector_2" d="M51.5978 33.3978H43.5556V36.5089H50.0422V49.5289H28V36.5089H37.8V37.1622C37.8 37.5748 37.9639 37.9704 38.2556 38.2622C38.5473 38.5539 38.943 38.7178 39.3556 38.7178C39.7681 38.7178 40.1638 38.5539 40.4555 38.2622C40.7472 37.9704 40.9111 37.5748 40.9111 37.1622V31.1111C40.9111 30.6986 40.7472 30.3029 40.4555 30.0112C40.1638 29.7194 39.7681 29.5556 39.3556 29.5556C38.943 29.5556 38.5473 29.7194 38.2556 30.0112C37.9639 30.3029 37.8 30.6986 37.8 31.1111V33.3978H26.4444C26.0319 33.3978 25.6362 33.5617 25.3445 33.8534C25.0528 34.1451 24.8889 34.5408 24.8889 34.9533V51.0844C24.8889 51.497 25.0528 51.8927 25.3445 52.1844C25.6362 52.4761 26.0319 52.64 26.4444 52.64H51.5978C52.0103 52.64 52.406 52.4761 52.6977 52.1844C52.9894 51.8927 53.1533 51.497 53.1533 51.0844V34.9533C53.1533 34.5408 52.9894 34.1451 52.6977 33.8534C52.406 33.5617 52.0103 33.3978 51.5978 33.3978Z" fill="var(--fill-0, white)"/>
</g>
</svg>
