<svg preserveAspectRatio="none" width="100%" height="100%" overflow="visible" style="display: block;" viewBox="0 0 56 58" fill="none" xmlns="http://www.w3.org/2000/svg">
<path id="Vector" d="M54.6028 26.0439C54.1824 25.3449 53.8135 24.5959 53.4979 23.8172C53.4826 23.6364 53.4211 23.4568 53.3082 23.2974C53.2996 23.2851 53.2897 23.2741 53.2808 23.2624C53.0041 22.5062 52.7722 21.7108 52.5748 20.8419C51.0303 14.0113 47.7157 11.3988 42.4353 7.70216C41.9898 7.39018 41.4551 7.09201 40.841 7.19041C40.7893 6.13126 40.2167 5.326 38.9921 4.31675C38.4654 3.88339 36.5689 3.08293 35.2527 3.08293H34.2467C34.2417 1.97795 33.9782 1.18693 33.4398 0.667437C32.715 -0.0316651 31.7431 -0.0115053 31.0943 0.00541186H24.9055C24.0519 -0.0143248 23.2532 0.295118 22.6596 0.875659C22.0715 1.45098 21.7519 2.23439 21.7534 3.08279H20.748C19.4307 3.08279 17.5339 3.88325 17.0069 4.31703C15.783 5.32558 15.2109 6.13069 15.1593 7.19027C14.5435 7.09145 14.0108 7.39004 13.5654 7.70202C8.28407 11.3995 4.96869 14.0124 3.42482 20.8407C3.22878 21.7035 2.99885 22.4948 2.72479 23.2485C2.71141 23.2652 2.69774 23.2815 2.68521 23.2992C2.57131 23.4616 2.51109 23.6445 2.49828 23.8283C2.18364 24.603 1.81632 25.3482 1.3979 26.044C0.269044 27.9214 -0.95776 30.6772 1.14291 33.1989C2.77918 44.4016 8.86494 47.4034 16.5518 51.1922C16.7288 51.2795 16.9076 51.3678 17.0865 51.456C17.0554 51.6356 17.0378 51.8211 17.0378 52.0141C17.0378 53.751 18.2758 55.3241 20.5235 56.4438C22.5382 57.4472 25.1935 58 28.0004 58C30.8066 58 33.4617 57.4474 35.4766 56.4438C37.7248 55.3241 38.9629 53.7508 38.9629 52.0141C38.9629 51.821 38.9452 51.6352 38.914 51.4555C39.0911 51.368 39.2683 51.2806 39.4432 51.1944C47.1326 47.4045 53.2203 44.4021 54.8578 33.198C56.9572 30.6745 55.7311 27.9204 54.6028 26.0439ZM37.6371 5.95137C38.8888 6.98346 38.9311 7.14135 38.4103 8.69322C38.3606 8.84209 38.3092 8.99012 38.2579 9.13843C38.0259 9.80665 37.7863 10.4977 37.6734 11.2944C37.6141 11.7145 37.8138 12.1292 38.1811 12.3476C38.549 12.5663 39.0123 12.5458 39.3587 12.2964C40.3133 11.6093 40.7506 10.6658 41.1366 9.83302C41.1891 9.71939 41.2416 9.60605 41.2955 9.49369C46.8042 13.3559 49.1855 15.5304 50.491 21.3047C50.6663 22.076 50.8674 22.7961 51.0992 23.4862C51.0793 23.4977 51.0602 23.5091 51.04 23.5208C46.9887 25.8379 42.4394 26.6906 38.1286 27.2666C37.6801 27.3258 37.2331 27.3812 36.7904 27.4331V26.1238C36.7904 24.6054 35.696 23.3356 34.2477 23.0473V5.19743H35.2528C35.9691 5.19743 37.333 5.7409 37.6371 5.95137ZM21.3445 28.7808C21.3531 28.7271 21.3588 28.6725 21.3588 28.6164C21.3588 28.5599 21.3532 28.5048 21.3445 28.4506V26.1238C21.3445 25.5595 21.8082 25.1003 22.3782 25.1003H33.6226C34.1918 25.1003 34.6547 25.5595 34.6547 26.1238V31.8926C34.6547 32.4562 34.1918 32.9147 33.6226 32.9147H22.3782C21.8082 32.9147 21.3445 32.4562 21.3445 31.8926V28.7808ZM24.1603 2.38002C24.3396 2.20464 24.5916 2.11202 24.8632 2.11949C24.8729 2.11978 24.8827 2.11992 24.8924 2.11992H31.1083C31.1176 2.11992 31.127 2.11978 31.1362 2.11964C31.6205 2.10737 31.8933 2.12809 31.9494 2.18209C31.9946 2.22565 32.112 2.47814 32.112 3.1138V22.9858H23.8908C23.8928 22.4246 23.8916 3.42197 23.8871 3.09787C23.8827 2.80732 23.9773 2.5592 24.1603 2.38002ZM14.7041 9.49453C14.7574 9.60548 14.8092 9.7177 14.8614 9.83006C15.2481 10.6638 15.6865 11.6088 16.6421 12.2964C16.9886 12.546 17.4523 12.5663 17.8196 12.3476C18.1869 12.1291 18.3868 11.7143 18.3272 11.2942C18.2138 10.4941 17.9724 9.80003 17.7387 9.12898C17.688 8.98335 17.6374 8.83786 17.5885 8.69209C17.0687 7.14023 17.111 6.98276 18.3622 5.95123C18.6664 5.74075 20.0308 5.19743 20.7479 5.19743H21.7719C21.8045 9.69091 21.757 22.4672 21.7549 23.0472C20.3047 23.3346 19.2089 24.6048 19.2089 26.124V27.4334C18.7622 27.3811 18.316 27.3259 17.8738 27.267C13.5603 26.6908 9.01058 25.8382 4.96072 23.5211C4.94036 23.5096 4.92071 23.4977 4.90063 23.4862C5.13241 22.7948 5.33344 22.0747 5.50841 21.304C6.81338 15.532 9.19495 13.3571 14.7041 9.49453ZM3.23277 27.1259C3.55082 26.5971 3.84069 26.0423 4.10678 25.4718C8.4196 27.881 13.1319 28.7673 17.5888 29.3626C18.1254 29.4341 18.6671 29.4992 19.209 29.561V31.8927C19.209 33.6224 20.6306 35.0294 22.3782 35.0294H33.6226C35.3693 35.0294 36.7903 33.6224 36.7903 31.8927V29.5618C37.3255 29.5006 37.8673 29.4344 38.4123 29.3625C42.8675 28.7673 47.5783 27.881 51.8939 25.4717C52.1599 26.0422 52.4499 26.5969 52.7679 27.1257C54.3484 29.7541 54.0271 30.9855 53.0551 32.0295C52.5992 32.5236 51.9398 33.0146 51.0401 33.5302C46.9889 35.8473 42.4396 36.6999 38.1279 37.276C34.5498 37.7509 31.2374 37.9722 27.9948 37.9561C24.761 37.9732 21.4512 37.751 17.8741 37.2762C13.5606 36.7 9.01087 35.8474 4.96157 33.5306C4.06122 33.0148 3.40176 32.5237 2.94233 32.0261C1.9735 30.9858 1.65217 29.7543 3.23277 27.1259ZM28.0004 55.8855C22.7986 55.8855 19.1734 53.8453 19.1734 52.0143C19.1734 51.7471 19.245 51.6141 19.3003 51.5352C19.928 50.6355 22.8535 50.5571 25.9139 50.5571C26.2381 50.5571 26.5638 50.558 26.8884 50.5588C27.6187 50.5608 28.3821 50.5608 29.112 50.5588C32.5004 50.5495 36.0056 50.5402 36.701 51.5359C36.7012 51.5362 36.7015 51.5367 36.7017 51.5369C36.7023 51.5376 36.7029 51.5386 36.7033 51.5393C36.7036 51.5396 36.7037 51.54 36.704 51.5405C36.7577 51.618 36.8275 51.7511 36.8275 52.0144C36.8273 53.8453 33.2021 55.8855 28.0004 55.8855ZM47.9789 43.4147C45.5314 45.8318 42.2691 47.4396 38.4916 49.3015C38.2594 49.4159 38.0252 49.5313 37.7895 49.6479C36.1689 48.4263 33.1184 48.4336 29.106 48.4442C28.3799 48.4462 27.6204 48.4462 26.8941 48.4442C22.881 48.434 19.8289 48.4266 18.21 49.6479C17.9726 49.5306 17.737 49.4144 17.5034 49.2992C13.7274 47.4379 10.4662 45.8305 8.01954 43.4139C5.90648 41.3269 4.50584 38.6913 3.69846 35.2467C3.76324 35.2849 3.82588 35.3231 3.89251 35.3613C8.26314 37.8619 13.058 38.7667 17.5894 39.3719C21.2662 39.8599 24.6716 40.0884 27.9947 40.0708C28.1148 40.0713 28.235 40.0717 28.3554 40.0717C31.5733 40.0717 34.8672 39.8424 38.4123 39.3719C42.9418 38.7667 47.736 37.8619 52.1088 35.361C52.1751 35.323 52.2375 35.285 52.3018 35.247C51.4937 38.6919 50.0925 41.3276 47.9789 43.4147Z" fill="var(--fill-0, white)"/>
</svg>
