<svg preserveAspectRatio="none" width="100%" height="100%" overflow="visible" style="display: block;" viewBox="0 0 63 63" fill="none" xmlns="http://www.w3.org/2000/svg">
<g id="folder-2">
<path id="Vector" d="M44.625 59.7187H18.375C6.79875 59.7187 3.28125 56.2012 3.28125 44.625V18.375C3.28125 6.79875 6.79875 3.28125 18.375 3.28125H22.3125C26.9062 3.28125 28.35 4.7775 30.1875 7.21875L34.125 12.4687C34.9912 13.6237 35.1225 13.7812 36.75 13.7812H44.625C56.2012 13.7812 59.7187 17.2987 59.7187 28.875V44.625C59.7187 56.2012 56.2012 59.7187 44.625 59.7187ZM18.375 7.21875C8.9775 7.21875 7.21875 9.00375 7.21875 18.375V44.625C7.21875 53.9962 8.9775 55.7812 18.375 55.7812H44.625C54.0225 55.7812 55.7812 53.9962 55.7812 44.625V28.875C55.7812 19.5037 54.0225 17.7187 44.625 17.7187H36.75C33.39 17.7187 32.2875 16.5637 30.975 14.8312L27.0375 9.58125C25.6725 7.77 25.2525 7.21875 22.3125 7.21875H18.375V7.21875Z" fill="var(--fill-0, #A9DFD8)"/>
<path id="Vector_2" d="M52.5 18.7162C51.4237 18.7162 50.5312 17.8237 50.5312 16.7475V13.125C50.5312 8.9775 48.7725 7.21875 44.625 7.21875H21C19.9237 7.21875 19.0312 6.32625 19.0312 5.25C19.0312 4.17375 19.9237 3.28125 21 3.28125H44.625C50.9775 3.28125 54.4687 6.7725 54.4687 13.125V16.7475C54.4687 17.8237 53.5762 18.7162 52.5 18.7162Z" fill="var(--fill-0, #A9DFD8)"/>
<g id="Vector_3" opacity="0">
</g>
</g>
</svg>
