<svg preserveAspectRatio="none" width="100%" height="100%" overflow="visible" style="display: block;" viewBox="0 0 34 34" fill="none" xmlns="http://www.w3.org/2000/svg">
<g id="icon-park-outline:link">
<path id="Vector" d="M17.1458 6.63779L6.84112 16.9432C5.67002 18.1145 5.01212 19.7029 5.01212 21.3592C5.01212 23.0155 5.67002 24.604 6.84112 25.7753C7.42109 26.3553 8.10961 26.8153 8.86738 27.1292C9.62515 27.4431 10.4373 27.6046 11.2575 27.6046C12.0777 27.6046 12.8899 27.4431 13.6477 27.1292C14.4054 26.8153 15.094 26.3553 15.6739 25.7753L27.9419 13.5081C28.3286 13.1214 28.6353 12.6624 28.8446 12.1571C29.0539 11.6519 29.1617 11.1104 29.1617 10.5636C29.1617 10.0167 29.0539 9.4752 28.8446 8.96998C28.6353 8.46476 28.3286 8.00571 27.9419 7.61906C27.5552 7.23234 27.0962 6.92557 26.5909 6.71628C26.0857 6.50698 25.5442 6.39926 24.9974 6.39926C24.4505 6.39926 23.909 6.50698 23.4038 6.71628C22.8986 6.92557 22.4395 7.23234 22.0529 7.61906L9.78562 19.887C9.59226 20.0803 9.43888 20.3098 9.33423 20.5625C9.22958 20.8151 9.17572 21.0858 9.17572 21.3592C9.17572 21.6327 9.22958 21.9034 9.33423 22.156C9.43888 22.4086 9.59226 22.6382 9.78562 22.8315C10.176 23.2218 10.7055 23.441 11.2575 23.441C11.8096 23.441 12.339 23.2218 12.7294 22.8315L23.0348 12.5261" stroke="var(--stroke-0, white)" stroke-width="2" stroke-linecap="round" stroke-linejoin="round"/>
</g>
</svg>
