<svg preserveAspectRatio="none" width="100%" height="100%" overflow="visible" style="display: block;" viewBox="0 0 13 13" fill="none" xmlns="http://www.w3.org/2000/svg">
<path id="Vector" d="M6.25 12.5C5.01387 12.5 3.8055 12.1334 2.77769 11.4467C1.74988 10.7599 0.948803 9.78381 0.475756 8.64178C0.00270801 7.49974 -0.121063 6.24307 0.120095 5.03069C0.361252 3.81831 0.956507 2.70466 1.83059 1.83059C2.70466 0.956507 3.81831 0.361252 5.03069 0.120095C6.24307 -0.121063 7.49974 0.00270801 8.64178 0.475756C9.78381 0.948803 10.7599 1.74988 11.4467 2.77769C12.1334 3.8055 12.5 5.01387 12.5 6.25C12.5 7.90761 11.8415 9.49732 10.6694 10.6694C9.49732 11.8415 7.90761 12.5 6.25 12.5ZM6.25 1.5625C5.3229 1.5625 4.41662 1.83742 3.64577 2.35249C2.87491 2.86756 2.2741 3.59965 1.91932 4.45617C1.56453 5.3127 1.4717 6.2552 1.65257 7.16449C1.83344 8.07378 2.27988 8.90901 2.93544 9.56457C3.591 10.2201 4.42623 10.6666 5.33552 10.8474C6.2448 11.0283 7.1873 10.9355 8.04383 10.5807C8.90036 10.2259 9.63245 9.62509 10.1475 8.85424C10.6626 8.08338 10.9375 7.1771 10.9375 6.25C10.9375 5.0068 10.4436 3.81452 9.56457 2.93544C8.68549 2.05636 7.49321 1.5625 6.25 1.5625Z" fill="var(--fill-0, white)"/>
</svg>
