<svg preserveAspectRatio="none" width="100%" height="100%" overflow="visible" style="display: block;" viewBox="0 0 19 21" fill="none" xmlns="http://www.w3.org/2000/svg">
<path id="Vector" d="M18.75 3.125C18.75 2.7106 18.5854 2.31317 18.2924 2.02015C17.9993 1.72712 17.6019 1.5625 17.1875 1.5625H14.0625V0H12.5V1.5625H6.25V0H4.6875V1.5625H1.5625C1.1481 1.5625 0.750671 1.72712 0.457646 2.02015C0.16462 2.31317 0 2.7106 0 3.125V18.75C0 19.1644 0.16462 19.5618 0.457646 19.8549C0.750671 20.1479 1.1481 20.3125 1.5625 20.3125H4.6875V18.75H1.5625V3.125H4.6875V4.6875H6.25V3.125H12.5V4.6875H14.0625V3.125H17.1875V7.8125H18.75V3.125Z" fill="var(--fill-0, white)"/>
</svg>
