<svg preserveAspectRatio="none" width="100%" height="100%" overflow="visible" style="display: block;" viewBox="0 0 20 20" fill="none" xmlns="http://www.w3.org/2000/svg">
<g id="clock">
<path id="Vector (Stroke)" fill-rule="evenodd" clip-rule="evenodd" d="M9.85417 1.375C5.17386 1.375 1.375 5.17386 1.375 9.85417C1.375 14.5345 5.17386 18.3333 9.85417 18.3333C14.5345 18.3333 18.3333 14.5345 18.3333 9.85417C18.3333 5.17386 14.5345 1.375 9.85417 1.375ZM0 9.85417C0 4.41447 4.41447 0 9.85417 0C15.2939 0 19.7083 4.41447 19.7083 9.85417C19.7083 15.2939 15.2939 19.7083 9.85417 19.7083C4.41447 19.7083 0 15.2939 0 9.85417Z" fill="var(--fill-0, black)"/>
<path id="Vector (Stroke)_2" fill-rule="evenodd" clip-rule="evenodd" d="M9.515 5.05083C9.8947 5.05083 10.2025 5.35864 10.2025 5.73833V9.49667C10.2025 9.63742 10.2562 9.84143 10.3758 10.051C10.4953 10.2606 10.6434 10.4105 10.7638 10.4819L10.7656 10.483L10.7656 10.483L13.6073 12.1788C13.9334 12.3734 14.0399 12.7954 13.8454 13.1215C13.6508 13.4475 13.2287 13.5541 12.9027 13.3595L10.0628 11.6648C10.0625 11.6646 10.0622 11.6644 10.0619 11.6642C9.68774 11.4422 9.38704 11.0929 9.18133 10.7321C8.97542 10.3711 8.8275 9.93342 8.8275 9.49667V5.73833C8.8275 5.35864 9.1353 5.05083 9.515 5.05083Z" fill="var(--fill-0, black)"/>
</g>
</svg>
