<svg preserveAspectRatio="none" width="100%" height="100%" overflow="visible" style="display: block;" viewBox="0 0 20 20" fill="none" xmlns="http://www.w3.org/2000/svg">
<g id="category-2">
<path id="Vector (Stroke)" fill-rule="evenodd" clip-rule="evenodd" d="M11.8889 0.888864C12.5216 0.256126 13.4149 0 14.4375 0H16.2708C17.2935 0 18.1867 0.256126 18.8195 0.888864C19.4522 1.5216 19.7083 2.41486 19.7083 3.4375V5.27083C19.7083 6.29347 19.4522 7.18673 18.8195 7.81947C18.1867 8.45221 17.2935 8.70833 16.2708 8.70833H14.4375C13.4149 8.70833 12.5216 8.45221 11.8889 7.81947C11.2561 7.18673 11 6.29347 11 5.27083V3.4375C11 2.41486 11.2561 1.5216 11.8889 0.888864ZM12.8611 1.86114C12.5772 2.14506 12.375 2.62681 12.375 3.4375V5.27083C12.375 6.08153 12.5772 6.56327 12.8611 6.8472C13.1451 7.13113 13.6268 7.33333 14.4375 7.33333H16.2708C17.0815 7.33333 17.5633 7.13113 17.8472 6.8472C18.1311 6.56327 18.3333 6.08153 18.3333 5.27083V3.4375C18.3333 2.62681 18.1311 2.14506 17.8472 1.86114C17.5633 1.57721 17.0815 1.375 16.2708 1.375H14.4375C13.6268 1.375 13.1451 1.57721 12.8611 1.86114Z" fill="var(--fill-0, white)"/>
<path id="Vector (Stroke)_2" fill-rule="evenodd" clip-rule="evenodd" d="M0.888864 11.8889C1.5216 11.2561 2.41486 11 3.4375 11H5.27083C6.29347 11 7.18673 11.2561 7.81947 11.8889C8.45221 12.5216 8.70833 13.4149 8.70833 14.4375V16.2708C8.70833 17.2935 8.45221 18.1867 7.81947 18.8195C7.18673 19.4522 6.29347 19.7083 5.27083 19.7083H3.4375C2.41486 19.7083 1.5216 19.4522 0.888864 18.8195C0.256126 18.1867 0 17.2935 0 16.2708V14.4375C0 13.4149 0.256126 12.5216 0.888864 11.8889ZM1.86114 12.8611C1.57721 13.1451 1.375 13.6268 1.375 14.4375V16.2708C1.375 17.0815 1.57721 17.5633 1.86114 17.8472C2.14506 18.1311 2.62681 18.3333 3.4375 18.3333H5.27083C6.08153 18.3333 6.56327 18.1311 6.8472 17.8472C7.13113 17.5633 7.33333 17.0815 7.33333 16.2708V14.4375C7.33333 13.6268 7.13113 13.1451 6.8472 12.8611C6.56327 12.5772 6.08153 12.375 5.27083 12.375H3.4375C2.62681 12.375 2.14506 12.5772 1.86114 12.8611Z" fill="var(--fill-0, white)"/>
<path id="Vector (Stroke)_3" fill-rule="evenodd" clip-rule="evenodd" d="M4.35417 1.375C2.70882 1.375 1.375 2.70882 1.375 4.35417C1.375 5.99951 2.70882 7.33333 4.35417 7.33333C5.99951 7.33333 7.33333 5.99951 7.33333 4.35417C7.33333 2.70882 5.99951 1.375 4.35417 1.375ZM0 4.35417C0 1.94943 1.94943 0 4.35417 0C6.75891 0 8.70833 1.94943 8.70833 4.35417C8.70833 6.75891 6.75891 8.70833 4.35417 8.70833C1.94943 8.70833 0 6.75891 0 4.35417Z" fill="var(--fill-0, white)"/>
<path id="Vector (Stroke)_4" fill-rule="evenodd" clip-rule="evenodd" d="M15.3542 12.375C13.7088 12.375 12.375 13.7088 12.375 15.3542C12.375 16.9995 13.7088 18.3333 15.3542 18.3333C16.9995 18.3333 18.3333 16.9995 18.3333 15.3542C18.3333 13.7088 16.9995 12.375 15.3542 12.375ZM11 15.3542C11 12.9494 12.9494 11 15.3542 11C17.7589 11 19.7083 12.9494 19.7083 15.3542C19.7083 17.7589 17.7589 19.7083 15.3542 19.7083C12.9494 19.7083 11 17.7589 11 15.3542Z" fill="var(--fill-0, white)"/>
</g>
</svg>
