<svg preserveAspectRatio="none" width="100%" height="100%" overflow="visible" style="display: block;" viewBox="0 0 16 20" fill="none" xmlns="http://www.w3.org/2000/svg">
<path id="Vector" d="M13.75 2.0625H11.6875V1.375C11.6875 1.01033 11.5426 0.660591 11.2848 0.402728C11.0269 0.144866 10.6772 0 10.3125 0H4.8125C4.44783 0 4.09809 0.144866 3.84023 0.402728C3.58237 0.660591 3.4375 1.01033 3.4375 1.375V2.0625H1.375C1.01033 2.0625 0.660591 2.20737 0.402728 2.46523C0.144866 2.72309 0 3.07283 0 3.4375V17.875C0 18.2397 0.144866 18.5894 0.402728 18.8473C0.660591 19.1051 1.01033 19.25 1.375 19.25H13.75C14.1147 19.25 14.4644 19.1051 14.7223 18.8473C14.9801 18.5894 15.125 18.2397 15.125 17.875V3.4375C15.125 3.07283 14.9801 2.72309 14.7223 2.46523C14.4644 2.20737 14.1147 2.0625 13.75 2.0625ZM4.8125 1.375H10.3125V4.125H4.8125V1.375ZM13.75 17.875H1.375V3.4375H3.4375V5.5H11.6875V3.4375H13.75V17.875Z" fill="var(--fill-0, white)"/>
</svg>
