<svg preserveAspectRatio="none" width="100%" height="100%" overflow="visible" style="display: block;" viewBox="0 0 18 17" fill="none" xmlns="http://www.w3.org/2000/svg">
<g id="task">
<path id="Vector (Stroke)" fill-rule="evenodd" clip-rule="evenodd" d="M7.33333 15.3542C7.33333 14.9745 7.64114 14.6667 8.02083 14.6667H17.1875C17.5672 14.6667 17.875 14.9745 17.875 15.3542C17.875 15.7339 17.5672 16.0417 17.1875 16.0417H8.02083C7.64114 16.0417 7.33333 15.7339 7.33333 15.3542Z" fill="var(--fill-0, #F1F1F1)"/>
<path id="Vector (Stroke)_2" fill-rule="evenodd" clip-rule="evenodd" d="M7.33333 8.9375C7.33333 8.5578 7.64114 8.25 8.02083 8.25H17.1875C17.5672 8.25 17.875 8.5578 17.875 8.9375C17.875 9.3172 17.5672 9.625 17.1875 9.625H8.02083C7.64114 9.625 7.33333 9.3172 7.33333 8.9375Z" fill="var(--fill-0, #F1F1F1)"/>
<path id="Vector (Stroke)_3" fill-rule="evenodd" clip-rule="evenodd" d="M7.33333 2.52083C7.33333 2.14114 7.64114 1.83333 8.02083 1.83333H17.1875C17.5672 1.83333 17.875 2.14114 17.875 2.52083C17.875 2.90053 17.5672 3.20833 17.1875 3.20833H8.02083C7.64114 3.20833 7.33333 2.90053 7.33333 2.52083Z" fill="var(--fill-0, #F1F1F1)"/>
<path id="Vector (Stroke)_4" fill-rule="evenodd" clip-rule="evenodd" d="M4.8403 0.201364C5.10879 0.46985 5.10879 0.90515 4.8403 1.17364L2.0903 3.92364C1.82182 4.19212 1.38652 4.19212 1.11803 3.92364L0.201364 3.00697C-0.0671214 2.73848 -0.0671214 2.30318 0.201364 2.0347C0.46985 1.76621 0.90515 1.76621 1.17364 2.0347L1.60417 2.46523L3.86803 0.201364C4.13652 -0.0671214 4.57182 -0.0671214 4.8403 0.201364Z" fill="var(--fill-0, #F1F1F1)"/>
<path id="Vector (Stroke)_5" fill-rule="evenodd" clip-rule="evenodd" d="M4.8403 6.61803C5.10879 6.88652 5.10879 7.32182 4.8403 7.5903L2.0903 10.3403C1.82182 10.6088 1.38652 10.6088 1.11803 10.3403L0.201364 9.42364C-0.0671214 9.15515 -0.0671214 8.71985 0.201364 8.45136C0.46985 8.18288 0.90515 8.18288 1.17364 8.45136L1.60417 8.88189L3.86803 6.61803C4.13652 6.34955 4.57182 6.34955 4.8403 6.61803Z" fill="var(--fill-0, #F1F1F1)"/>
<path id="Vector (Stroke)_6" fill-rule="evenodd" clip-rule="evenodd" d="M4.8403 13.0347C5.10879 13.3032 5.10879 13.7385 4.8403 14.007L2.0903 16.757C1.82182 17.0255 1.38652 17.0255 1.11803 16.757L0.201364 15.8403C-0.0671214 15.5718 -0.0671214 15.1365 0.201364 14.868C0.46985 14.5995 0.90515 14.5995 1.17364 14.868L1.60417 15.2986L3.86803 13.0347C4.13652 12.7662 4.57182 12.7662 4.8403 13.0347Z" fill="var(--fill-0, #F1F1F1)"/>
</g>
</svg>
