<svg preserveAspectRatio="none" width="100%" height="100%" overflow="visible" style="display: block;" viewBox="0 0 21 20" fill="none" xmlns="http://www.w3.org/2000/svg">
<path id="Vector" d="M6.875 1.375C7.55487 1.375 8.21948 1.57661 8.78477 1.95432C9.35007 2.33204 9.79066 2.8689 10.0508 3.49703C10.311 4.12515 10.3791 4.81631 10.2464 5.48312C10.1138 6.14993 9.78642 6.76244 9.30568 7.24318C8.82494 7.72392 8.21243 8.05131 7.54562 8.18395C6.87881 8.31659 6.18765 8.24851 5.55953 7.98834C4.9314 7.72816 4.39454 7.28757 4.01682 6.72227C3.63911 6.15698 3.4375 5.49237 3.4375 4.8125C3.4375 3.90082 3.79966 3.02648 4.44432 2.38182C5.08898 1.73716 5.96332 1.375 6.875 1.375ZM6.875 0C5.92318 0 4.99273 0.282248 4.20132 0.811053C3.40991 1.33986 2.79308 2.09147 2.42883 2.97084C2.06458 3.85021 1.96928 4.81784 2.15497 5.75137C2.34066 6.68491 2.79901 7.54241 3.47205 8.21545C4.14509 8.88849 5.00259 9.34684 5.93613 9.53253C6.86966 9.71822 7.83729 9.62292 8.71666 9.25867C9.59603 8.89442 10.3476 8.27759 10.8764 7.48618C11.4053 6.69477 11.6875 5.76432 11.6875 4.8125C11.6875 3.53615 11.1805 2.31207 10.278 1.40955C9.37543 0.50703 8.15135 0 6.875 0ZM13.75 19.25H12.375V15.8125C12.375 14.9008 12.0128 14.0265 11.3682 13.3818C10.7235 12.7372 9.84918 12.375 8.9375 12.375H4.8125C3.90082 12.375 3.02648 12.7372 2.38182 13.3818C1.73716 14.0265 1.375 14.9008 1.375 15.8125V19.25H0V15.8125C0 14.5361 0.50703 13.3121 1.40955 12.4095C2.31207 11.507 3.53615 11 4.8125 11H8.9375C10.2139 11 11.4379 11.507 12.3405 12.4095C13.243 13.3121 13.75 14.5361 13.75 15.8125V19.25ZM15.8125 9.74875L14.0319 7.96813L13.0625 8.9375L15.8125 11.6875L20.625 6.875L19.6556 5.90563L15.8125 9.74875Z" fill="var(--fill-0, white)"/>
</svg>
