<svg preserveAspectRatio="none" width="100%" height="100%" overflow="visible" style="display: block;" viewBox="0 0 18 20" fill="none" xmlns="http://www.w3.org/2000/svg">
<path id="Vector" fill-rule="evenodd" clip-rule="evenodd" d="M7.9695 0H9.9055C11.5903 0 12.925 0 13.9691 0.14025C15.0434 0.285083 15.9133 0.589417 16.5999 1.27508C17.2856 1.96167 17.5899 2.83158 17.7348 3.90592C17.875 4.95092 17.875 6.28467 17.875 7.9695V11.7388C17.875 13.4237 17.875 14.7583 17.7348 15.8024C17.5899 16.8768 17.2856 17.7467 16.5999 18.4332C15.9133 19.1189 15.0434 19.4233 13.9691 19.5681C12.9241 19.7083 11.5903 19.7083 9.9055 19.7083H7.9695C6.28467 19.7083 4.95 19.7083 3.90592 19.5681C2.83158 19.4233 1.96167 19.1189 1.27508 18.4332C0.589417 17.7467 0.285083 16.8768 0.14025 15.8024C1.09275e-07 14.7574 0 13.4237 0 11.7388V7.9695C0 6.28467 1.09275e-07 4.95 0.14025 3.90592C0.285083 2.83158 0.589417 1.96167 1.27508 1.27508C1.96167 0.589417 2.83158 0.285083 3.90592 0.14025C4.95092 0 6.28467 0 7.9695 0ZM4.08833 1.50333C3.16617 1.62708 2.6345 1.85992 2.24583 2.24767C1.859 2.63542 1.62617 3.16708 1.50242 4.08925C1.37592 5.03158 1.37408 6.27275 1.37408 8.02083V11.6875C1.37408 13.4356 1.37592 14.6777 1.50242 15.62C1.62617 16.5413 1.859 17.0729 2.24675 17.4607C2.6345 17.8484 3.16617 18.0813 4.08833 18.205C5.03067 18.3315 6.27183 18.3333 8.01992 18.3333H9.85325C11.6013 18.3333 12.8434 18.3315 13.7857 18.205C14.707 18.0813 15.2387 17.8484 15.6264 17.4607C16.0142 17.0729 16.247 16.5412 16.3707 15.6191C16.4972 14.6777 16.4991 13.4356 16.4991 11.6875V8.02083C16.4991 6.27275 16.4972 5.03158 16.3707 4.08833C16.247 3.16708 16.0142 2.63542 15.6264 2.24767C15.2387 1.85992 14.707 1.62708 13.7848 1.50333C12.8434 1.37683 11.6013 1.375 9.85325 1.375H8.01992C6.27183 1.375 5.03158 1.37683 4.08833 1.50333ZM4.58333 8.02083C4.58333 7.8385 4.65577 7.66363 4.7847 7.5347C4.91363 7.40577 5.0885 7.33333 5.27083 7.33333H12.6042C12.7865 7.33333 12.9614 7.40577 13.0903 7.5347C13.2192 7.66363 13.2917 7.8385 13.2917 8.02083C13.2917 8.20317 13.2192 8.37804 13.0903 8.50697C12.9614 8.6359 12.7865 8.70833 12.6042 8.70833H5.27083C5.0885 8.70833 4.91363 8.6359 4.7847 8.50697C4.65577 8.37804 4.58333 8.20317 4.58333 8.02083ZM4.58333 11.6875C4.58333 11.5052 4.65577 11.3303 4.7847 11.2014C4.91363 11.0724 5.0885 11 5.27083 11H9.85417C10.0365 11 10.2114 11.0724 10.3403 11.2014C10.4692 11.3303 10.5417 11.5052 10.5417 11.6875C10.5417 11.8698 10.4692 12.0447 10.3403 12.1736C10.2114 12.3026 10.0365 12.375 9.85417 12.375H5.27083C5.0885 12.375 4.91363 12.3026 4.7847 12.1736C4.65577 12.0447 4.58333 11.8698 4.58333 11.6875Z" fill="var(--fill-0, white)"/>
</svg>
