<svg preserveAspectRatio="none" width="100%" height="100%" overflow="visible" style="display: block;" viewBox="0 0 20 20" fill="none" xmlns="http://www.w3.org/2000/svg">
<g id="briefcase">
<path id="Vector (Stroke)" fill-rule="evenodd" clip-rule="evenodd" d="M0.801444 5.10329C1.61307 4.13836 3.00458 3.66667 5.04237 3.66667H14.209C16.2468 3.66667 17.6383 4.13836 18.45 5.10329C19.2537 6.05886 19.3302 7.31423 19.2013 8.48478L18.5135 15.8216C18.4125 16.764 18.176 17.7972 17.3345 18.5659C16.4993 19.3289 15.2053 19.7083 13.2924 19.7083H5.95903C4.04609 19.7083 2.7521 19.3289 1.91689 18.5659C1.07545 17.7972 0.838918 16.764 0.737946 15.8216L0.736975 15.8125L0.0500626 8.4848C-0.0787558 7.31424 -0.00230713 6.05886 0.801444 5.10329ZM1.85371 5.98837C1.42129 6.50247 1.29957 7.27493 1.41736 8.33939L1.41863 8.35082L2.1056 15.6795C2.19731 16.5314 2.38716 17.1331 2.84431 17.5508C3.30847 17.9748 4.18698 18.3333 5.95903 18.3333H13.2924C15.0644 18.3333 15.9429 17.9748 16.4071 17.5508C16.8642 17.1331 17.0541 16.5314 17.1458 15.6795L17.8339 8.33938C17.9517 7.27492 17.8301 6.50247 17.3977 5.98837C16.9718 5.48206 16.0854 5.04167 14.209 5.04167H5.04237C3.16598 5.04167 2.27958 5.48206 1.85371 5.98837Z" fill="var(--fill-0, #F1F1F1)"/>
<path id="Vector (Stroke)_2" fill-rule="evenodd" clip-rule="evenodd" d="M6.68658 2.56701C6.64764 2.86529 6.64653 3.20425 6.64653 3.62083V4.35417C6.64653 4.73386 6.33873 5.04167 5.95903 5.04167C5.57934 5.04167 5.27153 4.73386 5.27153 4.35417L5.27153 3.59701C5.27151 3.20877 5.27149 2.78473 5.32315 2.389C5.37668 1.97898 5.4914 1.54367 5.76014 1.15484C6.32547 0.336867 7.36108 0 8.89237 0H10.359C11.8903 0 12.9259 0.336867 13.4913 1.15484C13.76 1.54367 13.8747 1.97898 13.9282 2.389C13.9799 2.78473 13.9799 3.20878 13.9799 3.59702L13.9799 4.35417C13.9799 4.73386 13.6721 5.04167 13.2924 5.04167C12.9127 5.04167 12.6049 4.73386 12.6049 4.35417V3.62083C12.6049 3.20425 12.6038 2.86529 12.5648 2.56701C12.5267 2.27493 12.4581 2.07831 12.3601 1.93662C12.1921 1.69355 11.7611 1.375 10.359 1.375H8.89237C7.49032 1.375 7.05926 1.69355 6.89126 1.93662C6.79334 2.07831 6.72472 2.27493 6.68658 2.56701Z" fill="var(--fill-0, #F1F1F1)"/>
<path id="Vector (Stroke)_3" fill-rule="evenodd" clip-rule="evenodd" d="M8.4806 10.5424C8.47988 10.6078 8.47987 10.6824 8.47987 10.7708V11.715C8.47987 11.9731 8.48212 12.1629 8.50453 12.3239C8.52608 12.4788 8.5603 12.5541 8.58931 12.5951C8.62166 12.6407 8.78289 12.8333 9.6257 12.8333C10.4723 12.8333 10.6316 12.6388 10.6633 12.5936C10.6925 12.552 10.7266 12.4754 10.7478 12.3188C10.7698 12.1559 10.7715 11.9652 10.7715 11.7058V10.7708C10.7715 10.6824 10.7715 10.6078 10.7708 10.5424C10.7054 10.5417 10.6308 10.5417 10.5424 10.5417H8.70903C8.62062 10.5417 8.54603 10.5417 8.4806 10.5424ZM8.67892 9.16666C8.68897 9.16667 8.69901 9.16667 8.70903 9.16667H10.5424C10.5524 9.16667 10.5624 9.16667 10.5725 9.16666C10.7752 9.16662 10.9806 9.16657 11.1482 9.1852C11.3191 9.20418 11.6029 9.25494 11.8306 9.48261C12.0583 9.71029 12.109 9.9941 12.128 10.165C12.1466 10.3326 12.1466 10.538 12.1465 10.7407C12.1465 10.7508 12.1465 10.7608 12.1465 10.7708V11.7161C12.1465 11.9542 12.1466 12.2359 12.1104 12.5031C12.0729 12.7805 11.9907 13.0952 11.7896 13.3824C11.3606 13.9949 10.6032 14.2083 9.6257 14.2083C8.65351 14.2083 7.89808 13.9976 7.46751 13.3902C7.26506 13.1045 7.18126 12.7909 7.14265 12.5134C7.10491 12.2422 7.10487 11.9565 7.10487 11.715V10.7708C7.10487 10.7608 7.10486 10.7508 7.10486 10.7407C7.10482 10.538 7.10477 10.3326 7.12339 10.165C7.14238 9.9941 7.19314 9.71029 7.42081 9.48261C7.64849 9.25494 7.9323 9.20418 8.10316 9.1852C8.27079 9.16657 8.47621 9.16662 8.67892 9.16666Z" fill="var(--fill-0, #F1F1F1)"/>
<path id="Vector (Stroke)_4" fill-rule="evenodd" clip-rule="evenodd" d="M19.0275 8.53313C19.2509 8.84021 19.183 9.27018 18.8759 9.49351C16.6611 11.1043 14.1307 12.0623 11.5449 12.3879C11.1682 12.4354 10.8244 12.1685 10.7769 11.7917C10.7295 11.415 10.9964 11.0712 11.3731 11.0237C13.7374 10.726 16.047 9.85073 18.0672 8.38149C18.3742 8.15817 18.8042 8.22606 19.0275 8.53313Z" fill="var(--fill-0, #F1F1F1)"/>
<path id="Vector (Stroke)_5" fill-rule="evenodd" clip-rule="evenodd" d="M0.46003 8.79669C0.674488 8.48336 1.10235 8.40321 1.41568 8.61766C3.3855 9.9659 5.6068 10.7785 7.86887 11.0318C8.24621 11.074 8.51785 11.4142 8.4756 11.7915C8.43335 12.1688 8.0932 12.4405 7.71587 12.3982C5.2296 12.1198 2.79424 11.2274 0.639056 9.75234C0.325725 9.53788 0.245572 9.11002 0.46003 8.79669Z" fill="var(--fill-0, #F1F1F1)"/>
</g>
</svg>
