<svg preserveAspectRatio="none" width="100%" height="100%" overflow="visible" style="display: block;" viewBox="0 0 21 21" fill="none" xmlns="http://www.w3.org/2000/svg">
<path id="Vector" d="M10.2222 0C8.20046 0 6.2241 0.599523 4.54306 1.72275C2.86203 2.84599 1.55182 4.44248 0.778125 6.31035C0.00442909 8.17821 -0.198005 10.2336 0.196422 12.2165C0.590848 14.1994 1.56442 16.0208 2.99402 17.4504C4.42363 18.88 6.24505 19.8536 8.22797 20.248C10.2109 20.6425 12.2662 20.44 14.1341 19.6663C16.002 18.8926 17.5985 17.5824 18.7217 15.9014C19.8449 14.2203 20.4444 12.244 20.4444 10.2222C20.4444 7.51112 19.3675 4.91106 17.4504 2.99402C15.5334 1.07698 12.9333 0 10.2222 0ZM1.27778 10.2222C1.30568 7.92432 2.21695 5.72532 3.82262 4.08126C5.42829 2.4372 7.60516 1.47423 9.90176 1.39206C12.1984 1.30989 14.4385 2.11483 16.1575 3.63994C17.8766 5.16505 18.9427 7.2933 19.1347 9.58333H9.89639L4.025 16.6558C3.15831 15.8231 2.46834 14.8241 1.99633 13.7187C1.52432 12.6134 1.27993 11.4242 1.27778 10.2222ZM10.2222 19.1667C8.3494 19.1662 6.52467 18.5736 5.00889 17.4736L10.4969 10.8611H19.1347C18.9733 13.1154 17.9645 15.225 16.3111 16.7658C14.6577 18.3066 12.4823 19.1644 10.2222 19.1667Z" fill="var(--fill-0, white)"/>
</svg>
