<svg preserveAspectRatio="none" width="100%" height="100%" overflow="visible" style="display: block;" viewBox="0 0 57 51" fill="none" xmlns="http://www.w3.org/2000/svg">
<path id="Vector 2" d="M9.72769 40.4662C10.3448 42.689 11.4807 44.4564 14.0339 47.4023C14.3546 47.7724 14.5353 48.2457 14.5353 48.7354V48.8173C14.5353 49.2979 14.3444 49.7589 14.0045 50.0987C13.6647 50.4386 13.2037 50.6295 12.7231 50.6295H3.94852C3.24467 50.6295 2.56405 50.3777 2.02965 49.9197C1.37612 49.3595 1 48.5418 1 47.681V12.0558C1.28921 7.0737 5.55467 2.6788 10.8155 1.23079C11.4545 1.05492 12.1187 1 12.7814 1H53.0975C54.2196 1 55.2788 1.51806 55.9677 2.40379L56.0369 2.49269C56.4885 3.07334 56.7337 3.78796 56.7337 4.52356C56.7337 5.33127 56.4382 6.11108 55.9029 6.71592L37.1234 27.9342C36.5985 28.5273 35.8446 28.8668 35.0526 28.8668C34.4814 28.8668 33.9243 28.69 33.4577 28.3607L29.663 25.6821L26.807 24.1789C25.3709 23.423 23.7724 23.0281 22.1496 23.0281H21.8216C20.6879 23.0281 19.5625 23.2209 18.4934 23.5982L17.2907 24.0227C16.1705 24.418 15.1297 25.0098 14.2171 25.7704L13.5263 26.346C12.7874 26.9617 12.1412 27.6809 11.6076 28.4812L11.3018 28.94C10.6321 29.9445 10.1498 31.062 9.87838 32.2384L9.74884 32.7997C9.57867 33.5371 9.49275 34.2915 9.49275 35.0483V38.4718C9.49275 39.1441 9.54785 39.8184 9.72769 40.4662Z" fill="var(--fill-0, #249B5B)" stroke="var(--stroke-0, #00620F)" stroke-width="0.5"/>
</svg>
