<svg preserveAspectRatio="none" width="100%" height="100%" overflow="visible" style="display: block;" viewBox="0 0 50 50" fill="none" xmlns="http://www.w3.org/2000/svg">
<path id="Vector" d="M43.7094 18.75H31.221V6.25C31.221 4.5924 30.5631 3.00268 29.3921 1.83058C28.2211 0.65848 26.6329 0 24.9768 0C23.3207 0 21.7325 0.65848 20.5615 1.83058C19.3905 3.00268 18.7326 4.5924 18.7326 6.25L18.9543 18.75H6.2442C4.58813 18.75 2.9999 19.4085 1.82888 20.5806C0.657869 21.7527 0 23.3424 0 25C0 26.6576 0.657869 28.2473 1.82888 29.4194C2.9999 30.5915 4.58813 31.25 6.2442 31.25L18.9543 31.0281L18.7326 43.75C18.7326 45.4076 19.3905 46.9973 20.5615 48.1694C21.7325 49.3415 23.3207 50 24.9768 50C26.6329 50 28.2211 49.3415 29.3921 48.1694C30.5631 46.9973 31.221 45.4076 31.221 43.75V31.0281L43.7094 31.25C45.3654 31.25 46.9537 30.5915 48.1247 29.4194C49.2957 28.2473 49.9536 26.6576 49.9536 25C49.9536 23.3424 49.2957 21.7527 48.1247 20.5806C46.9537 19.4085 45.3654 18.75 43.7094 18.75Z" fill="var(--fill-0, #A9DFD8)"/>
</svg>
