<svg preserveAspectRatio="none" width="100%" height="100%" overflow="visible" style="display: block;" viewBox="0 0 6 12" fill="none" xmlns="http://www.w3.org/2000/svg">
<path id="Vector" d="M5.00309 11.9999C4.87505 12.0004 4.74854 11.9721 4.63285 11.9172C4.51717 11.8624 4.41525 11.7823 4.33458 11.6828L0.194971 6.54046C0.0689131 6.3871 0 6.19474 0 5.99622C0 5.7977 0.0689131 5.60534 0.194971 5.45199L4.48028 0.309616C4.62576 0.134589 4.8348 0.0245216 5.06143 0.00362666C5.28806 -0.0172683 5.51371 0.052721 5.68874 0.198198C5.86376 0.343674 5.97383 0.552721 5.99473 0.779351C6.01562 1.00598 5.94563 1.23163 5.80016 1.40665L1.96909 6.00051L5.6716 10.5944C5.7764 10.7202 5.84297 10.8734 5.86344 11.0358C5.88391 11.1983 5.85741 11.3632 5.78708 11.5111C5.71676 11.6589 5.60554 11.7835 5.4666 11.8702C5.32767 11.9568 5.16682 12.0019 5.00309 11.9999Z" fill="var(--fill-0, white)"/>
</svg>
