<svg preserveAspectRatio="none" width="100%" height="100%" overflow="visible" style="display: block;" viewBox="0 0 35 28" fill="none" xmlns="http://www.w3.org/2000/svg">
<path id="Vector 1" d="M32.0336 9.26913L27.3223 4.19549C25.4302 2.15782 22.7751 1 19.9944 1H7.30424C5.94656 1 4.54269 1.18507 3.437 1.97294C2.62588 2.55091 2.06076 3.25209 1.57788 4.28402C1.1283 5.24478 1 6.31768 1 7.37842V18.9932C1 20.0834 1.14923 21.1798 1.59148 22.1762C2.56535 24.3706 3.82334 25.6376 6.15751 26.7803C7.28602 27.3328 8.5455 27.5399 9.80199 27.5399H28.7359C30.22 27.5399 31.774 27.3268 32.9123 26.3743C32.9712 26.325 33.029 26.2747 33.086 26.223C34.3912 25.0398 34.7056 23.1619 34.7056 21.4003V16.0736C34.7056 13.5495 33.7511 11.1188 32.0336 9.26913Z" fill="var(--fill-0, #FE8D17)" stroke="var(--stroke-0, #FF6600)" stroke-width="0.5"/>
</svg>
