<svg preserveAspectRatio="none" width="100%" height="100%" overflow="visible" style="display: block;" viewBox="0 0 64 57" fill="none" xmlns="http://www.w3.org/2000/svg">
<path id="Vector 3" d="M3.51389 30.3653L3.83467 30.1247C4.9233 29.3082 6.24737 28.8668 7.60816 28.8668C9.00189 28.8668 10.3561 29.3298 11.4582 30.183L17.3673 34.7578C17.7761 35.0743 18.2387 35.3143 18.7328 35.4664C20.3728 35.971 22.1557 35.4505 23.2667 34.1429L49.0316 3.81785C50.5409 2.04146 52.7906 1.06824 55.1187 1.18465C56.1831 1.23787 57.2384 1.49322 58.1548 2.03722C59.6726 2.93815 60.7009 3.92487 62.1033 6.31837C62.6031 7.17131 62.8379 8.1522 62.8379 9.14077C62.8379 10.5672 62.3301 11.9471 61.4055 13.0333L26.481 54.0635C25.469 55.2525 23.9863 55.9375 22.425 55.9375C21.1049 55.9375 19.832 55.4474 18.8528 54.5621L3.18501 40.3967C1.79382 39.1389 1 37.351 1 35.4756V35.393C1 34.4174 1.22716 33.4551 1.6635 32.5824C2.09983 31.7098 2.73335 30.9507 3.51389 30.3653Z" fill="var(--fill-0, #E83928)" stroke="var(--stroke-0, #DE0903)" stroke-width="0.5"/>
</svg>
