<svg preserveAspectRatio="none" width="100%" height="100%" overflow="visible" style="display: block;" viewBox="0 0 38 53" fill="none" xmlns="http://www.w3.org/2000/svg">
<path id="Vector 4" d="M1 39.2405V48.3203C1 49.4424 1.51806 50.5017 2.40379 51.1906C3.04206 51.687 3.82759 51.9565 4.6362 51.9565H27.8345C29.2155 51.9565 30.619 51.7275 31.7731 50.9689C33.8902 49.5773 35.0815 47.6904 36.5779 44.7618C37.2783 43.391 37.625 41.8667 37.625 40.3274V5.7594C37.625 4.57542 37.1837 3.43395 36.3873 2.55788L36.29 2.45091C35.4499 1.52683 34.259 1 33.0102 1C31.7269 1 30.5066 1.55614 29.6648 2.52466L3.4527 32.6801C1.87103 34.4997 1 36.8295 1 39.2405Z" fill="var(--fill-0, #EFF6FF)" stroke="var(--stroke-0, #EFF6FF)" stroke-width="0.5"/>
</svg>
