<svg width="87" height="24" viewBox="0 0 87 24" fill="none" xmlns="http://www.w3.org/2000/svg">
<rect x="0.25" y="0.25" width="86.4192" height="23.5" rx="3.75" stroke="#323449" stroke-width="0.5"/>
<path d="M21.02 8.05C21.76 8.05 22.4067 8.19333 22.96 8.48C23.52 8.76 23.95 9.16667 24.25 9.7C24.5567 10.2267 24.71 10.8433 24.71 11.55C24.71 12.2567 24.5567 12.87 24.25 13.39C23.95 13.91 23.52 14.31 22.96 14.59C22.4067 14.8633 21.76 15 21.02 15H18.75V8.05H21.02ZM21.02 14.07C21.8333 14.07 22.4567 13.85 22.89 13.41C23.3233 12.97 23.54 12.35 23.54 11.55C23.54 10.7433 23.3233 10.1133 22.89 9.66C22.4567 9.20667 21.8333 8.98 21.02 8.98H19.89V14.07H21.02ZM28.2298 15.09C27.7098 15.09 27.2398 14.9733 26.8198 14.74C26.3998 14.5 26.0698 14.1667 25.8298 13.74C25.5898 13.3067 25.4698 12.8067 25.4698 12.24C25.4698 11.68 25.5932 11.1833 25.8398 10.75C26.0865 10.3167 26.4232 9.98333 26.8498 9.75C27.2765 9.51667 27.7532 9.4 28.2798 9.4C28.8065 9.4 29.2832 9.51667 29.7098 9.75C30.1365 9.98333 30.4732 10.3167 30.7198 10.75C30.9665 11.1833 31.0898 11.68 31.0898 12.24C31.0898 12.8 30.9632 13.2967 30.7098 13.73C30.4565 14.1633 30.1098 14.5 29.6698 14.74C29.2365 14.9733 28.7565 15.09 28.2298 15.09ZM28.2298 14.1C28.5232 14.1 28.7965 14.03 29.0498 13.89C29.3098 13.75 29.5198 13.54 29.6798 13.26C29.8398 12.98 29.9198 12.64 29.9198 12.24C29.9198 11.84 29.8432 11.5033 29.6898 11.23C29.5365 10.95 29.3332 10.74 29.0798 10.6C28.8265 10.46 28.5532 10.39 28.2598 10.39C27.9665 10.39 27.6932 10.46 27.4398 10.6C27.1932 10.74 26.9965 10.95 26.8498 11.23C26.7032 11.5033 26.6298 11.84 26.6298 12.24C26.6298 12.8333 26.7798 13.2933 27.0798 13.62C27.3865 13.94 27.7698 14.1 28.2298 14.1ZM39.6168 9.49L37.9068 15H36.7068L35.5968 10.93L34.4868 15H33.2868L31.5668 9.49H32.7268L33.8768 13.92L35.0468 9.49H36.2368L37.3568 13.9L38.4968 9.49H39.6168ZM43.2488 9.4C43.6821 9.4 44.0688 9.49 44.4088 9.67C44.7554 9.85 45.0254 10.1167 45.2188 10.47C45.4121 10.8233 45.5088 11.25 45.5088 11.75V15H44.3788V11.92C44.3788 11.4267 44.2554 11.05 44.0088 10.79C43.7621 10.5233 43.4254 10.39 42.9988 10.39C42.5721 10.39 42.2321 10.5233 41.9788 10.79C41.7321 11.05 41.6088 11.4267 41.6088 11.92V15H40.4688V9.49H41.6088V10.12C41.7954 9.89333 42.0321 9.71667 42.3188 9.59C42.6121 9.46333 42.9221 9.4 43.2488 9.4ZM48.1029 7.6V15H46.9629V7.6H48.1029ZM51.9896 15.09C51.4696 15.09 50.9996 14.9733 50.5796 14.74C50.1596 14.5 49.8296 14.1667 49.5896 13.74C49.3496 13.3067 49.2296 12.8067 49.2296 12.24C49.2296 11.68 49.3529 11.1833 49.5996 10.75C49.8463 10.3167 50.1829 9.98333 50.6096 9.75C51.0363 9.51667 51.5129 9.4 52.0396 9.4C52.5663 9.4 53.0429 9.51667 53.4696 9.75C53.8963 9.98333 54.2329 10.3167 54.4796 10.75C54.7263 11.1833 54.8496 11.68 54.8496 12.24C54.8496 12.8 54.7229 13.2967 54.4696 13.73C54.2163 14.1633 53.8696 14.5 53.4296 14.74C52.9963 14.9733 52.5163 15.09 51.9896 15.09ZM51.9896 14.1C52.2829 14.1 52.5563 14.03 52.8096 13.89C53.0696 13.75 53.2796 13.54 53.4396 13.26C53.5996 12.98 53.6796 12.64 53.6796 12.24C53.6796 11.84 53.6029 11.5033 53.4496 11.23C53.2963 10.95 53.0929 10.74 52.8396 10.6C52.5863 10.46 52.3129 10.39 52.0196 10.39C51.7263 10.39 51.4529 10.46 51.1996 10.6C50.9529 10.74 50.7563 10.95 50.6096 11.23C50.4629 11.5033 50.3896 11.84 50.3896 12.24C50.3896 12.8333 50.5396 13.2933 50.8396 13.62C51.1463 13.94 51.5296 14.1 51.9896 14.1ZM55.5966 12.22C55.5966 11.6667 55.7099 11.1767 55.9366 10.75C56.1699 10.3233 56.4832 9.99333 56.8766 9.76C57.2766 9.52 57.7166 9.4 58.1966 9.4C58.6299 9.4 59.0066 9.48667 59.3266 9.66C59.6532 9.82667 59.9132 10.0367 60.1066 10.29V9.49H61.2566V15H60.1066V14.18C59.9132 14.44 59.6499 14.6567 59.3166 14.83C58.9832 15.0033 58.6032 15.09 58.1766 15.09C57.7032 15.09 57.2699 14.97 56.8766 14.73C56.4832 14.4833 56.1699 14.1433 55.9366 13.71C55.7099 13.27 55.5966 12.7733 55.5966 12.22ZM60.1066 12.24C60.1066 11.86 60.0266 11.53 59.8666 11.25C59.7132 10.97 59.5099 10.7567 59.2566 10.61C59.0032 10.4633 58.7299 10.39 58.4366 10.39C58.1432 10.39 57.8699 10.4633 57.6166 10.61C57.3632 10.75 57.1566 10.96 56.9966 11.24C56.8432 11.5133 56.7666 11.84 56.7666 12.22C56.7666 12.6 56.8432 12.9333 56.9966 13.22C57.1566 13.5067 57.3632 13.7267 57.6166 13.88C57.8766 14.0267 58.1499 14.1 58.4366 14.1C58.7299 14.1 59.0032 14.0267 59.2566 13.88C59.5099 13.7333 59.7132 13.52 59.8666 13.24C60.0266 12.9533 60.1066 12.62 60.1066 12.24ZM62.3739 12.22C62.3739 11.6667 62.4872 11.1767 62.7139 10.75C62.9472 10.3233 63.2606 9.99333 63.6539 9.76C64.0539 9.52 64.4972 9.4 64.9839 9.4C65.3439 9.4 65.6972 9.48 66.0439 9.64C66.3972 9.79333 66.6772 10 66.8839 10.26V7.6H68.0339V15H66.8839V14.17C66.6972 14.4367 66.4372 14.6567 66.1039 14.83C65.7772 15.0033 65.4006 15.09 64.9739 15.09C64.4939 15.09 64.0539 14.97 63.6539 14.73C63.2606 14.4833 62.9472 14.1433 62.7139 13.71C62.4872 13.27 62.3739 12.7733 62.3739 12.22ZM66.8839 12.24C66.8839 11.86 66.8039 11.53 66.6439 11.25C66.4906 10.97 66.2872 10.7567 66.0339 10.61C65.7806 10.4633 65.5072 10.39 65.2139 10.39C64.9206 10.39 64.6472 10.4633 64.3939 10.61C64.1406 10.75 63.9339 10.96 63.7739 11.24C63.6206 11.5133 63.5439 11.84 63.5439 12.22C63.5439 12.6 63.6206 12.9333 63.7739 13.22C63.9339 13.5067 64.1406 13.7267 64.3939 13.88C64.6539 14.0267 64.9272 14.1 65.2139 14.1C65.5072 14.1 65.7806 14.0267 66.0339 13.88C66.2872 13.7333 66.4906 13.52 66.6439 13.24C66.8039 12.9533 66.8839 12.62 66.8839 12.24Z" fill="#41D37E"/>
</svg>
