<svg width="89" height="15" viewBox="0 0 89 15" fill="none" xmlns="http://www.w3.org/2000/svg">
<path d="M4.47095 14.1216C3.62281 14.1216 2.85949 13.9762 2.18098 13.6854C1.50247 13.3825 0.969355 12.9584 0.581635 12.4132C0.193915 11.868 5.52546e-05 11.2319 5.52546e-05 10.5049H2.21733C2.26579 11.0501 2.47783 11.4984 2.85343 11.8498C3.24115 12.2012 3.78032 12.3769 4.47095 12.3769C5.18581 12.3769 5.74316 12.2072 6.14299 11.868C6.54283 11.5166 6.74275 11.0683 6.74275 10.5231C6.74275 10.099 6.61553 9.75369 6.36108 9.48713C6.11876 9.22057 5.8098 9.01459 5.43419 8.8692C5.0707 8.72381 4.56182 8.56629 3.90754 8.39667C3.08364 8.17857 2.41119 7.96048 1.89019 7.74239C1.38131 7.51218 0.945122 7.16081 0.581635 6.68828C0.218148 6.21574 0.036404 5.5857 0.036404 4.79814C0.036404 4.07117 0.218148 3.43506 0.581635 2.88983C0.945122 2.3446 1.454 1.92659 2.10828 1.6358C2.76256 1.34501 3.51982 1.19962 4.38008 1.19962C5.60382 1.19962 6.60341 1.50858 7.37885 2.12651C8.16641 2.73232 8.60259 3.56834 8.6874 4.63457H6.39743C6.36108 4.17415 6.14299 3.78038 5.74316 3.45324C5.34332 3.1261 4.81626 2.96253 4.16199 2.96253C3.56829 2.96253 3.08364 3.11398 2.70804 3.41689C2.33243 3.7198 2.14463 4.15598 2.14463 4.72544C2.14463 5.11316 2.25974 5.43424 2.48994 5.68869C2.73227 5.93101 3.03517 6.12487 3.39866 6.27027C3.76215 6.41566 4.25892 6.57317 4.88896 6.7428C5.72498 6.97301 6.40349 7.20322 6.92449 7.43342C7.4576 7.66363 7.90591 8.02106 8.26939 8.50571C8.645 8.97825 8.8328 9.61435 8.8328 10.414C8.8328 11.0562 8.65711 11.662 8.30574 12.2315C7.96649 12.8009 7.46366 13.2613 6.79727 13.6127C6.14299 13.952 5.36755 14.1216 4.47095 14.1216ZM20.4556 8.74198C20.4556 9.11758 20.4314 9.45684 20.3829 9.75974H12.7315C12.7921 10.5594 13.0889 11.2016 13.622 11.6862C14.1551 12.1709 14.8094 12.4132 15.5849 12.4132C16.6996 12.4132 17.4871 11.9467 17.9475 11.0138H20.183C19.8801 11.9346 19.3288 12.6919 18.5291 13.2856C17.7416 13.8672 16.7601 14.1579 15.5849 14.1579C14.6277 14.1579 13.7674 13.9459 13.0041 13.5218C12.2529 13.0857 11.6592 12.4798 11.223 11.7044C10.7989 10.9168 10.5869 10.0081 10.5869 8.97825C10.5869 7.94836 10.7929 7.0457 11.2048 6.27027C11.6289 5.48271 12.2165 4.8769 12.9678 4.45283C13.7311 4.02876 14.6034 3.81673 15.5849 3.81673C16.5299 3.81673 17.372 4.0227 18.1111 4.43465C18.8502 4.84661 19.4257 5.42819 19.8377 6.17939C20.2496 6.91848 20.4556 7.77268 20.4556 8.74198ZM18.2928 8.0877C18.2807 7.32438 18.0081 6.71251 17.475 6.25209C16.9419 5.79167 16.2815 5.56146 15.494 5.56146C14.7791 5.56146 14.1673 5.79167 13.6584 6.25209C13.1495 6.70039 12.8466 7.31226 12.7497 8.0877H18.2928ZM24.5664 0.545339V13.9944H22.4945V0.545339H24.5664ZM36.4647 8.74198C36.4647 9.11758 36.4404 9.45684 36.392 9.75974H28.7405C28.8011 10.5594 29.098 11.2016 29.6311 11.6862C30.1642 12.1709 30.8185 12.4132 31.5939 12.4132C32.7086 12.4132 33.4962 11.9467 33.9566 11.0138H36.192C35.8891 11.9346 35.3378 12.6919 34.5382 13.2856C33.7506 13.8672 32.7692 14.1579 31.5939 14.1579C30.6367 14.1579 29.7765 13.9459 29.0132 13.5218C28.262 13.0857 27.6683 12.4798 27.2321 11.7044C26.808 10.9168 26.596 10.0081 26.596 8.97825C26.596 7.94836 26.8019 7.0457 27.2139 6.27027C27.638 5.48271 28.2256 4.8769 28.9768 4.45283C29.7401 4.02876 30.6125 3.81673 31.5939 3.81673C32.539 3.81673 33.3811 4.0227 34.1202 4.43465C34.8593 4.84661 35.4348 5.42819 35.8467 6.17939C36.2587 6.91848 36.4647 7.77268 36.4647 8.74198ZM34.3019 8.0877C34.2898 7.32438 34.0172 6.71251 33.4841 6.25209C32.9509 5.79167 32.2906 5.56146 31.5031 5.56146C30.7882 5.56146 30.1763 5.79167 29.6674 6.25209C29.1586 6.70039 28.8557 7.31226 28.7587 8.0877H34.3019ZM37.813 8.97825C37.813 7.94836 38.0189 7.0457 38.4309 6.27027C38.855 5.48271 39.4365 4.8769 40.1756 4.45283C40.9147 4.02876 41.7629 3.81673 42.72 3.81673C43.9317 3.81673 44.9313 4.10752 45.7188 4.68909C46.5185 5.25856 47.0577 6.07641 47.3363 7.14264H45.1009C44.9191 6.64587 44.6284 6.25815 44.2285 5.97948C43.8287 5.7008 43.3259 5.56146 42.72 5.56146C41.8719 5.56146 41.1934 5.86437 40.6845 6.47018C40.1877 7.06388 39.9394 7.8999 39.9394 8.97825C39.9394 10.0566 40.1877 10.8987 40.6845 11.5045C41.1934 12.1103 41.8719 12.4132 42.72 12.4132C43.9196 12.4132 44.7132 11.8861 45.1009 10.832H47.3363C47.0455 11.8498 46.5003 12.6616 45.7006 13.2674C44.901 13.8611 43.9074 14.1579 42.72 14.1579C41.7629 14.1579 40.9147 13.9459 40.1756 13.5218C39.4365 13.0857 38.855 12.4798 38.4309 11.7044C38.0189 10.9168 37.813 10.0081 37.813 8.97825ZM51.8183 5.67051V11.2137C51.8183 11.5893 51.9031 11.8619 52.0727 12.0315C52.2545 12.1891 52.5574 12.2678 52.9815 12.2678H54.2537V13.9944H52.618C51.685 13.9944 50.9702 13.7763 50.4734 13.3401C49.9766 12.9039 49.7283 12.1951 49.7283 11.2137V5.67051H48.5469V3.9803H49.7283V1.49041H51.8183V3.9803H54.2537V5.67051H51.8183ZM68.3176 1.36319V3.0534H62.9562V6.77915H67.1363V8.46936H62.9562V13.9944H60.8843V1.36319H68.3176ZM71.2919 2.65357C70.9163 2.65357 70.6012 2.52635 70.3468 2.2719C70.0923 2.01746 69.9651 1.70244 69.9651 1.32684C69.9651 0.951233 70.0923 0.636211 70.3468 0.38177C70.6012 0.127328 70.9163 0.000107726 71.2919 0.000107726C71.6553 0.000107726 71.9643 0.127328 72.2187 0.38177C72.4732 0.636211 72.6004 0.951233 72.6004 1.32684C72.6004 1.70244 72.4732 2.01746 72.2187 2.2719C71.9643 2.52635 71.6553 2.65357 71.2919 2.65357ZM72.3096 3.9803V13.9944H70.2377V3.9803H72.3096ZM77.1017 0.545339V13.9944H75.0298V0.545339H77.1017ZM88.9999 8.74198C88.9999 9.11758 88.9757 9.45684 88.9272 9.75974H81.2758C81.3364 10.5594 81.6333 11.2016 82.1664 11.6862C82.6995 12.1709 83.3538 12.4132 84.1292 12.4132C85.2439 12.4132 86.0315 11.9467 86.4919 11.0138H88.7273C88.4244 11.9346 87.8731 12.6919 87.0735 13.2856C86.2859 13.8672 85.3045 14.1579 84.1292 14.1579C83.172 14.1579 82.3118 13.9459 81.5484 13.5218C80.7972 13.0857 80.2035 12.4798 79.7674 11.7044C79.3433 10.9168 79.1313 10.0081 79.1313 8.97825C79.1313 7.94836 79.3372 7.0457 79.7492 6.27027C80.1733 5.48271 80.7609 4.8769 81.5121 4.45283C82.2754 4.02876 83.1478 3.81673 84.1292 3.81673C85.0743 3.81673 85.9164 4.0227 86.6554 4.43465C87.3945 4.84661 87.9701 5.42819 88.382 6.17939C88.794 6.91848 88.9999 7.77268 88.9999 8.74198ZM86.8372 8.0877C86.8251 7.32438 86.5525 6.71251 86.0193 6.25209C85.4862 5.79167 84.8259 5.56146 84.0383 5.56146C83.3235 5.56146 82.7116 5.79167 82.2027 6.25209C81.6938 6.70039 81.3909 7.31226 81.294 8.0877H86.8372Z" fill="#87888C"/>
</svg>
