<svg width="1095" height="153" viewBox="0 0 1095 153" fill="none" xmlns="http://www.w3.org/2000/svg">
<g filter="url(#filter0_d_41_22438)">
<rect x="10" y="10" width="1075" height="133" rx="10" fill="#21222D"/>
</g>
<path d="M54.14 32.04V40.68C54.14 41.6267 54.3867 42.3533 54.88 42.86C55.3733 43.3533 56.0667 43.6 56.96 43.6C57.8667 43.6 58.5667 43.3533 59.06 42.86C59.5533 42.3533 59.8 41.6267 59.8 40.68V32.04H62.62V40.66C62.62 41.8467 62.36 42.8533 61.84 43.68C61.3333 44.4933 60.6467 45.1067 59.78 45.52C58.9267 45.9333 57.9733 46.14 56.92 46.14C55.88 46.14 54.9333 45.9333 54.08 45.52C53.24 45.1067 52.5733 44.4933 52.08 43.68C51.5867 42.8533 51.34 41.8467 51.34 40.66V32.04H54.14ZM68.1253 36.52C68.4853 36.0133 68.9786 35.5933 69.6053 35.26C70.2453 34.9133 70.972 34.74 71.7853 34.74C72.732 34.74 73.5853 34.9733 74.3453 35.44C75.1186 35.9067 75.7253 36.5733 76.1653 37.44C76.6186 38.2933 76.8453 39.2867 76.8453 40.42C76.8453 41.5533 76.6186 42.56 76.1653 43.44C75.7253 44.3067 75.1186 44.98 74.3453 45.46C73.5853 45.94 72.732 46.18 71.7853 46.18C70.972 46.18 70.252 46.0133 69.6253 45.68C69.012 45.3467 68.512 44.9267 68.1253 44.42V51.28H65.3253V34.92H68.1253V36.52ZM73.9853 40.42C73.9853 39.7533 73.8453 39.18 73.5653 38.7C73.2986 38.2067 72.9386 37.8333 72.4853 37.58C72.0453 37.3267 71.5653 37.2 71.0453 37.2C70.5386 37.2 70.0586 37.3333 69.6053 37.6C69.1653 37.8533 68.8053 38.2267 68.5253 38.72C68.2586 39.2133 68.1253 39.7933 68.1253 40.46C68.1253 41.1267 68.2586 41.7067 68.5253 42.2C68.8053 42.6933 69.1653 43.0733 69.6053 43.34C70.0586 43.5933 70.5386 43.72 71.0453 43.72C71.5653 43.72 72.0453 43.5867 72.4853 43.32C72.9386 43.0533 73.2986 42.6733 73.5653 42.18C73.8453 41.6867 73.9853 41.1 73.9853 40.42ZM81.68 31.2V46H78.88V31.2H81.68ZM89.3664 46.18C88.2997 46.18 87.3397 45.9467 86.4864 45.48C85.6331 45 84.9597 44.3267 84.4664 43.46C83.9864 42.5933 83.7464 41.5933 83.7464 40.46C83.7464 39.3267 83.9931 38.3267 84.4864 37.46C84.9931 36.5933 85.6797 35.9267 86.5464 35.46C87.4131 34.98 88.3797 34.74 89.4464 34.74C90.5131 34.74 91.4797 34.98 92.3464 35.46C93.2131 35.9267 93.8931 36.5933 94.3864 37.46C94.8931 38.3267 95.1464 39.3267 95.1464 40.46C95.1464 41.5933 94.8864 42.5933 94.3664 43.46C93.8597 44.3267 93.1664 45 92.2864 45.48C91.4197 45.9467 90.4464 46.18 89.3664 46.18ZM89.3664 43.74C89.8731 43.74 90.3464 43.62 90.7864 43.38C91.2397 43.1267 91.5997 42.7533 91.8664 42.26C92.1331 41.7667 92.2664 41.1667 92.2664 40.46C92.2664 39.4067 91.9864 38.6 91.4264 38.04C90.8797 37.4667 90.2064 37.18 89.4064 37.18C88.6064 37.18 87.9331 37.4667 87.3864 38.04C86.8531 38.6 86.5864 39.4067 86.5864 40.46C86.5864 41.5133 86.8464 42.3267 87.3664 42.9C87.8997 43.46 88.5664 43.74 89.3664 43.74ZM96.4803 40.42C96.4803 39.3 96.7003 38.3067 97.1403 37.44C97.5936 36.5733 98.2003 35.9067 98.9603 35.44C99.7336 34.9733 100.594 34.74 101.54 34.74C102.367 34.74 103.087 34.9067 103.7 35.24C104.327 35.5733 104.827 35.9933 105.2 36.5V34.92H108.02V46H105.2V44.38C104.84 44.9 104.34 45.3333 103.7 45.68C103.074 46.0133 102.347 46.18 101.52 46.18C100.587 46.18 99.7336 45.94 98.9603 45.46C98.2003 44.98 97.5936 44.3067 97.1403 43.44C96.7003 42.56 96.4803 41.5533 96.4803 40.42ZM105.2 40.46C105.2 39.78 105.067 39.2 104.8 38.72C104.534 38.2267 104.174 37.8533 103.72 37.6C103.267 37.3333 102.78 37.2 102.26 37.2C101.74 37.2 101.26 37.3267 100.82 37.58C100.38 37.8333 100.02 38.2067 99.7403 38.7C99.4736 39.18 99.3403 39.7533 99.3403 40.42C99.3403 41.0867 99.4736 41.6733 99.7403 42.18C100.02 42.6733 100.38 43.0533 100.82 43.32C101.274 43.5867 101.754 43.72 102.26 43.72C102.78 43.72 103.267 43.5933 103.72 43.34C104.174 43.0733 104.534 42.7 104.8 42.22C105.067 41.7267 105.2 41.14 105.2 40.46ZM110.035 40.42C110.035 39.3 110.255 38.3067 110.695 37.44C111.148 36.5733 111.762 35.9067 112.535 35.44C113.308 34.9733 114.168 34.74 115.115 34.74C115.835 34.74 116.522 34.9 117.175 35.22C117.828 35.5267 118.348 35.94 118.735 36.46V31.2H121.575V46H118.735V44.36C118.388 44.9067 117.902 45.3467 117.275 45.68C116.648 46.0133 115.922 46.18 115.095 46.18C114.162 46.18 113.308 45.94 112.535 45.46C111.762 44.98 111.148 44.3067 110.695 43.44C110.255 42.56 110.035 41.5533 110.035 40.42ZM118.755 40.46C118.755 39.78 118.622 39.2 118.355 38.72C118.088 38.2267 117.728 37.8533 117.275 37.6C116.822 37.3333 116.335 37.2 115.815 37.2C115.295 37.2 114.815 37.3267 114.375 37.58C113.935 37.8333 113.575 38.2067 113.295 38.7C113.028 39.18 112.895 39.7533 112.895 40.42C112.895 41.0867 113.028 41.6733 113.295 42.18C113.575 42.6733 113.935 43.0533 114.375 43.32C114.828 43.5867 115.308 43.72 115.815 43.72C116.335 43.72 116.822 43.5933 117.275 43.34C117.728 43.0733 118.088 42.7 118.355 42.22C118.622 41.7267 118.755 41.14 118.755 40.46ZM133.955 32.04C135.422 32.04 136.709 32.3267 137.815 32.9C138.935 33.4733 139.795 34.2933 140.395 35.36C141.009 36.4133 141.315 37.64 141.315 39.04C141.315 40.44 141.009 41.6667 140.395 42.72C139.795 43.76 138.935 44.5667 137.815 45.14C136.709 45.7133 135.422 46 133.955 46H129.075V32.04H133.955ZM133.855 43.62C135.322 43.62 136.455 43.22 137.255 42.42C138.055 41.62 138.455 40.4933 138.455 39.04C138.455 37.5867 138.055 36.4533 137.255 35.64C136.455 34.8133 135.322 34.4 133.855 34.4H131.875V43.62H133.855ZM148.331 46.18C147.265 46.18 146.305 45.9467 145.451 45.48C144.598 45 143.925 44.3267 143.431 43.46C142.951 42.5933 142.711 41.5933 142.711 40.46C142.711 39.3267 142.958 38.3267 143.451 37.46C143.958 36.5933 144.645 35.9267 145.511 35.46C146.378 34.98 147.345 34.74 148.411 34.74C149.478 34.74 150.445 34.98 151.311 35.46C152.178 35.9267 152.858 36.5933 153.351 37.46C153.858 38.3267 154.111 39.3267 154.111 40.46C154.111 41.5933 153.851 42.5933 153.331 43.46C152.825 44.3267 152.131 45 151.251 45.48C150.385 45.9467 149.411 46.18 148.331 46.18ZM148.331 43.74C148.838 43.74 149.311 43.62 149.751 43.38C150.205 43.1267 150.565 42.7533 150.831 42.26C151.098 41.7667 151.231 41.1667 151.231 40.46C151.231 39.4067 150.951 38.6 150.391 38.04C149.845 37.4667 149.171 37.18 148.371 37.18C147.571 37.18 146.898 37.4667 146.351 38.04C145.818 38.6 145.551 39.4067 145.551 40.46C145.551 41.5133 145.811 42.3267 146.331 42.9C146.865 43.46 147.531 43.74 148.331 43.74ZM155.445 40.46C155.445 39.3133 155.678 38.3133 156.145 37.46C156.612 36.5933 157.258 35.9267 158.085 35.46C158.912 34.98 159.858 34.74 160.925 34.74C162.298 34.74 163.432 35.0867 164.325 35.78C165.232 36.46 165.838 37.42 166.145 38.66H163.125C162.965 38.18 162.692 37.8067 162.305 37.54C161.932 37.26 161.465 37.12 160.905 37.12C160.105 37.12 159.472 37.4133 159.005 38C158.538 38.5733 158.305 39.3933 158.305 40.46C158.305 41.5133 158.538 42.3333 159.005 42.92C159.472 43.4933 160.105 43.78 160.905 43.78C162.038 43.78 162.778 43.2733 163.125 42.26H166.145C165.838 43.46 165.232 44.4133 164.325 45.12C163.418 45.8267 162.285 46.18 160.925 46.18C159.858 46.18 158.912 45.9467 158.085 45.48C157.258 45 156.612 44.3333 156.145 43.48C155.678 42.6133 155.445 41.6067 155.445 40.46ZM178.656 34.92V46H175.836V44.6C175.476 45.08 175.003 45.46 174.416 45.74C173.843 46.0067 173.216 46.14 172.536 46.14C171.67 46.14 170.903 45.96 170.236 45.6C169.57 45.2267 169.043 44.6867 168.656 43.98C168.283 43.26 168.096 42.4067 168.096 41.42V34.92H170.896V41.02C170.896 41.9 171.116 42.58 171.556 43.06C171.996 43.5267 172.596 43.76 173.356 43.76C174.13 43.76 174.736 43.5267 175.176 43.06C175.616 42.58 175.836 41.9 175.836 41.02V34.92H178.656ZM195.179 34.76C196.539 34.76 197.632 35.18 198.459 36.02C199.299 36.8467 199.719 38.0067 199.719 39.5V46H196.919V39.88C196.919 39.0133 196.699 38.3533 196.259 37.9C195.819 37.4333 195.219 37.2 194.459 37.2C193.699 37.2 193.092 37.4333 192.639 37.9C192.199 38.3533 191.979 39.0133 191.979 39.88V46H189.179V39.88C189.179 39.0133 188.959 38.3533 188.519 37.9C188.079 37.4333 187.479 37.2 186.719 37.2C185.946 37.2 185.332 37.4333 184.879 37.9C184.439 38.3533 184.219 39.0133 184.219 39.88V46H181.419V34.92H184.219V36.26C184.579 35.7933 185.039 35.4267 185.599 35.16C186.172 34.8933 186.799 34.76 187.479 34.76C188.346 34.76 189.119 34.9467 189.799 35.32C190.479 35.68 191.006 36.2 191.379 36.88C191.739 36.24 192.259 35.7267 192.939 35.34C193.632 34.9533 194.379 34.76 195.179 34.76ZM212.676 40.22C212.676 40.62 212.649 40.98 212.596 41.3H204.496C204.563 42.1 204.843 42.7267 205.336 43.18C205.829 43.6333 206.436 43.86 207.156 43.86C208.196 43.86 208.936 43.4133 209.376 42.52H212.396C212.076 43.5867 211.463 44.4667 210.556 45.16C209.649 45.84 208.536 46.18 207.216 46.18C206.149 46.18 205.189 45.9467 204.336 45.48C203.496 45 202.836 44.3267 202.356 43.46C201.889 42.5933 201.656 41.5933 201.656 40.46C201.656 39.3133 201.889 38.3067 202.356 37.44C202.823 36.5733 203.476 35.9067 204.316 35.44C205.156 34.9733 206.123 34.74 207.216 34.74C208.269 34.74 209.209 34.9667 210.036 35.42C210.876 35.8733 211.523 36.52 211.976 37.36C212.443 38.1867 212.676 39.14 212.676 40.22ZM209.776 39.42C209.763 38.7 209.503 38.1267 208.996 37.7C208.489 37.26 207.869 37.04 207.136 37.04C206.443 37.04 205.856 37.2533 205.376 37.68C204.909 38.0933 204.623 38.6733 204.516 39.42H209.776ZM220.86 34.76C222.18 34.76 223.247 35.18 224.06 36.02C224.873 36.8467 225.28 38.0067 225.28 39.5V46H222.48V39.88C222.48 39 222.26 38.3267 221.82 37.86C221.38 37.38 220.78 37.14 220.02 37.14C219.247 37.14 218.633 37.38 218.18 37.86C217.74 38.3267 217.52 39 217.52 39.88V46H214.72V34.92H217.52V36.3C217.893 35.82 218.367 35.4467 218.94 35.18C219.527 34.9 220.167 34.76 220.86 34.76ZM231.203 37.22V42.58C231.203 42.9533 231.289 43.2267 231.463 43.4C231.649 43.56 231.956 43.64 232.383 43.64H233.683V46H231.923C229.563 46 228.383 44.8533 228.383 42.56V37.22H227.063V34.92H228.383V32.18H231.203V34.92H233.683V37.22H231.203Z" fill="#FFF9F7"/>
<defs>
<filter id="filter0_d_41_22438" x="0" y="0" width="1095" height="153" filterUnits="userSpaceOnUse" color-interpolation-filters="sRGB">
<feFlood flood-opacity="0" result="BackgroundImageFix"/>
<feColorMatrix in="SourceAlpha" type="matrix" values="0 0 0 0 0 0 0 0 0 0 0 0 0 0 0 0 0 0 127 0" result="hardAlpha"/>
<feOffset/>
<feGaussianBlur stdDeviation="5"/>
<feComposite in2="hardAlpha" operator="out"/>
<feColorMatrix type="matrix" values="0 0 0 0 0.662745 0 0 0 0 0.87451 0 0 0 0 0.847059 0 0 0 0.4 0"/>
<feBlend mode="normal" in2="BackgroundImageFix" result="effect1_dropShadow_41_22438"/>
<feBlend mode="normal" in="SourceGraphic" in2="effect1_dropShadow_41_22438" result="shape"/>
</filter>
</defs>
</svg>
