<svg width="204" height="47" viewBox="0 0 204 47" fill="none" xmlns="http://www.w3.org/2000/svg">
<rect x="0.5" y="0.5" width="203" height="46" rx="9.5" stroke="#A9DFD8"/>
<path d="M80.68 17.768V24.488C80.68 25.16 80.8453 25.6773 81.176 26.04C81.5067 26.4027 81.992 26.584 82.632 26.584C83.272 26.584 83.7627 26.4027 84.104 26.04C84.4453 25.6773 84.616 25.16 84.616 24.488V17.768H87.352V24.472C87.352 25.4747 87.1387 26.3227 86.712 27.016C86.2853 27.7093 85.7093 28.232 84.984 28.584C84.2693 28.936 83.4693 29.112 82.584 29.112C81.6987 29.112 80.904 28.9413 80.2 28.6C79.5067 28.248 78.9573 27.7253 78.552 27.032C78.1467 26.328 77.944 25.4747 77.944 24.472V17.768H80.68ZM92.0093 21.336C92.2759 20.92 92.6439 20.584 93.1133 20.328C93.5826 20.072 94.1319 19.944 94.7613 19.944C95.4973 19.944 96.1639 20.1307 96.7613 20.504C97.3586 20.8773 97.8279 21.4107 98.1693 22.104C98.5213 22.7973 98.6973 23.6027 98.6973 24.52C98.6973 25.4373 98.5213 26.248 98.1693 26.952C97.8279 27.6453 97.3586 28.184 96.7613 28.568C96.1639 28.9413 95.4973 29.128 94.7613 29.128C94.1426 29.128 93.5933 29 93.1133 28.744C92.6439 28.488 92.2759 28.1573 92.0093 27.752V33.256H89.2733V20.072H92.0093V21.336ZM95.9133 24.52C95.9133 23.8373 95.7213 23.304 95.3373 22.92C94.9639 22.5253 94.4999 22.328 93.9453 22.328C93.4013 22.328 92.9373 22.5253 92.5533 22.92C92.1799 23.3147 91.9933 23.8533 91.9933 24.536C91.9933 25.2187 92.1799 25.7573 92.5533 26.152C92.9373 26.5467 93.4013 26.744 93.9453 26.744C94.4893 26.744 94.9533 26.5467 95.3373 26.152C95.7213 25.7467 95.9133 25.2027 95.9133 24.52ZM102.869 17.16V29H100.133V17.16H102.869ZM108.915 29.128C108.041 29.128 107.251 28.9413 106.547 28.568C105.854 28.1947 105.305 27.6613 104.899 26.968C104.505 26.2747 104.307 25.464 104.307 24.536C104.307 23.6187 104.51 22.8133 104.915 22.12C105.321 21.416 105.875 20.8773 106.579 20.504C107.283 20.1307 108.073 19.944 108.947 19.944C109.822 19.944 110.611 20.1307 111.315 20.504C112.019 20.8773 112.574 21.416 112.979 22.12C113.385 22.8133 113.587 23.6187 113.587 24.536C113.587 25.4533 113.379 26.264 112.963 26.968C112.558 27.6613 111.998 28.1947 111.283 28.568C110.579 28.9413 109.79 29.128 108.915 29.128ZM108.915 26.76C109.438 26.76 109.881 26.568 110.243 26.184C110.617 25.8 110.803 25.2507 110.803 24.536C110.803 23.8213 110.622 23.272 110.259 22.888C109.907 22.504 109.47 22.312 108.947 22.312C108.414 22.312 107.971 22.504 107.619 22.888C107.267 23.2613 107.091 23.8107 107.091 24.536C107.091 25.2507 107.262 25.8 107.603 26.184C107.955 26.568 108.393 26.76 108.915 26.76ZM114.495 24.52C114.495 23.6027 114.666 22.7973 115.007 22.104C115.359 21.4107 115.834 20.8773 116.431 20.504C117.028 20.1307 117.695 19.944 118.431 19.944C119.06 19.944 119.61 20.072 120.079 20.328C120.559 20.584 120.927 20.92 121.183 21.336V20.072H123.919V29H121.183V27.736C120.916 28.152 120.543 28.488 120.063 28.744C119.594 29 119.044 29.128 118.415 29.128C117.69 29.128 117.028 28.9413 116.431 28.568C115.834 28.184 115.359 27.6453 115.007 26.952C114.666 26.248 114.495 25.4373 114.495 24.52ZM121.183 24.536C121.183 23.8533 120.991 23.3147 120.607 22.92C120.234 22.5253 119.775 22.328 119.231 22.328C118.687 22.328 118.223 22.5253 117.839 22.92C117.466 23.304 117.279 23.8373 117.279 24.52C117.279 25.2027 117.466 25.7467 117.839 26.152C118.223 26.5467 118.687 26.744 119.231 26.744C119.775 26.744 120.234 26.5467 120.607 26.152C120.991 25.7573 121.183 25.2187 121.183 24.536ZM125.354 24.52C125.354 23.6027 125.525 22.7973 125.866 22.104C126.218 21.4107 126.693 20.8773 127.29 20.504C127.888 20.1307 128.554 19.944 129.29 19.944C129.877 19.944 130.41 20.0667 130.89 20.312C131.381 20.5573 131.765 20.888 132.042 21.304V17.16H134.778V29H132.042V27.72C131.786 28.1467 131.418 28.488 130.938 28.744C130.469 29 129.92 29.128 129.29 29.128C128.554 29.128 127.888 28.9413 127.29 28.568C126.693 28.184 126.218 27.6453 125.866 26.952C125.525 26.248 125.354 25.4373 125.354 24.52ZM132.042 24.536C132.042 23.8533 131.85 23.3147 131.466 22.92C131.093 22.5253 130.634 22.328 130.09 22.328C129.546 22.328 129.082 22.5253 128.698 22.92C128.325 23.304 128.138 23.8373 128.138 24.52C128.138 25.2027 128.325 25.7467 128.698 26.152C129.082 26.5467 129.546 26.744 130.09 26.744C130.634 26.744 131.093 26.5467 131.466 26.152C131.85 25.7573 132.042 25.2187 132.042 24.536Z" fill="#E9E9E9"/>
</svg>
