<svg width="977" height="158" viewBox="0 0 977 158" fill="none" xmlns="http://www.w3.org/2000/svg">
<path d="M0.0743759 140.395C87.1532 134.84 148.065 89.8222 251.582 89.8222C355.099 89.8222 421.828 131.755 498.567 125.698C575.306 119.641 593.571 88.4543 621.176 66.6237C648.78 44.7931 678.448 26.6497 731.859 24.8302C785.269 23.0107 808.578 40.5378 848.913 34.1459C890.023 28.1802 917.924 3.524 976.967 3.524" stroke="#FF92AE" stroke-width="2.33374"/>
<path d="M0.0746202 152.457C106.781 153.817 164.526 95.6745 164.526 95.6745C164.526 95.6745 194.886 62.8179 248.106 54.9598C301.327 47.1017 395.25 73.4168 484.839 57.0642C574.429 40.7116 571.974 13.9115 664.018 8.91491C756.062 3.91828 781.251 34.2872 855.178 17.0587C929.105 -0.169872 976.968 1.19284 976.968 1.19284" stroke="url(#paint0_linear_1_7180)" stroke-width="2.33374"/>
<defs>
<linearGradient id="paint0_linear_1_7180" x1="976.968" y1="1.16742" x2="931.191" y2="296.703" gradientUnits="userSpaceOnUse">
<stop stop-color="#67E9F1"/>
<stop offset="1" stop-color="#24E795"/>
</linearGradient>
</defs>
</svg>
