<svg width="35" height="35" viewBox="0 0 35 35" fill="none" xmlns="http://www.w3.org/2000/svg">
<path d="M9.84375 8H25.1562C27.767 8 30.2708 9.03711 32.1168 10.8832C33.9629 12.7292 35 15.233 35 17.8438C35 20.4545 33.9629 22.9583 32.1168 24.8043C30.2708 26.6504 27.767 27.6875 25.1562 27.6875H9.84375C7.23302 27.6875 4.72923 26.6504 2.88317 24.8043C1.03711 22.9583 0 20.4545 0 17.8438C0 15.233 1.03711 12.7292 2.88317 10.8832C4.72923 9.03711 7.23302 8 9.84375 8ZM9.84375 23.7227C11.0065 23.7227 12.1431 23.3779 13.1099 22.7319C14.0767 22.0859 14.8302 21.1677 15.2752 20.0935C15.7201 19.0193 15.8365 17.8372 15.6097 16.6968C15.3829 15.5564 14.8229 14.5089 14.0008 13.6867C13.1786 12.8646 12.1311 12.3046 10.9907 12.0778C9.85027 11.851 8.66822 11.9674 7.59399 12.4123C6.51976 12.8573 5.6016 13.6108 4.95562 14.5776C4.30964 15.5444 3.96484 16.681 3.96484 17.8438C3.96376 18.6161 4.11509 19.381 4.41015 20.0948C4.70521 20.8085 5.13821 21.4571 5.68433 22.0032C6.23045 22.5493 6.87897 22.9823 7.59271 23.2774C8.30646 23.5724 9.07142 23.7237 9.84375 23.7227Z" fill="#909C9A"/>
</svg>
