<svg width="35" height="28" viewBox="0 0 35 28" fill="none" xmlns="http://www.w3.org/2000/svg">
<path d="M32.0101 8.71699L27.1895 3.52551C25.2534 1.44052 22.5366 0.255806 19.6913 0.255806H6.70646C5.31725 0.255806 3.88078 0.445171 2.7494 1.25134C1.91944 1.84273 1.34121 2.5602 0.847107 3.6161C0.387088 4.59917 0.255806 5.69699 0.255806 6.78236V18.6669C0.255806 19.7824 0.408504 20.9042 0.861025 21.9239C1.85751 24.1692 3.14472 25.4656 5.5331 26.6349C6.68783 27.2002 7.97655 27.4121 9.26222 27.4121H28.6358C30.1545 27.4121 31.7446 27.194 32.9093 26.2194C32.9695 26.169 33.0287 26.1175 33.087 26.0646C34.4225 24.854 34.7442 22.9324 34.7442 21.1299V15.6795C34.7442 13.0968 33.7675 10.6096 32.0101 8.71699Z" fill="#FE8D17" stroke="#FF6600" stroke-width="0.5"/>
</svg>
