<svg preserveAspectRatio="none" width="100%" height="100%" overflow="visible" style="display: block;" viewBox="0 0 81 81" fill="none" xmlns="http://www.w3.org/2000/svg">
<g id="archive-book">
<path id="Vector" d="M53.6667 76.3073H26.8333C14.5906 76.3073 7.54688 69.2635 7.54688 57.0208V23.4792C7.54688 11.2365 14.5906 4.19271 26.8333 4.19271H53.6667C65.9094 4.19271 72.9531 11.2365 72.9531 23.4792V57.0208C72.9531 69.2635 65.9094 76.3073 53.6667 76.3073ZM26.8333 9.22396C17.2404 9.22396 12.5781 13.8863 12.5781 23.4792V57.0208C12.5781 66.6138 17.2404 71.276 26.8333 71.276H53.6667C63.2596 71.276 67.9219 66.6138 67.9219 57.0208V23.4792C67.9219 13.8863 63.2596 9.22396 53.6667 9.22396H26.8333Z" fill="var(--fill-0, #87888C)"/>
<path id="Vector_2" d="M30.1875 37.2647C29.6173 37.2647 29.0471 37.1642 28.5104 36.9294C26.9675 36.2586 25.9948 34.7491 25.9948 33.1056V6.70833C25.9948 5.33313 27.1352 4.19271 28.5104 4.19271H51.9896C53.3648 4.19271 54.5052 5.33313 54.5052 6.70833V33.072C54.5052 34.7491 53.5325 36.2585 51.9896 36.8958C50.4802 37.5667 48.7026 37.2649 47.4615 36.1244L40.25 29.5166L33.0385 36.158C32.2335 36.8959 31.2273 37.2647 30.1875 37.2647ZM40.25 24.1836C41.2562 24.1836 42.296 24.5524 43.101 25.2903L49.474 31.1601V9.22396H31.026V31.1601L37.399 25.2903C38.204 24.5524 39.2437 24.1836 40.25 24.1836Z" fill="var(--fill-0, #87888C)"/>
<path id="Vector_3" d="M58.6979 49.474H44.4427C43.0675 49.474 41.9271 48.3335 41.9271 46.9583C41.9271 45.5831 43.0675 44.4427 44.4427 44.4427H58.6979C60.0731 44.4427 61.2135 45.5831 61.2135 46.9583C61.2135 48.3335 60.0731 49.474 58.6979 49.474Z" fill="var(--fill-0, #87888C)"/>
<path id="Vector_4" d="M58.6979 62.8906H30.1875C28.8123 62.8906 27.6719 61.7502 27.6719 60.375C27.6719 58.9998 28.8123 57.8594 30.1875 57.8594H58.6979C60.0731 57.8594 61.2135 58.9998 61.2135 60.375C61.2135 61.7502 60.0731 62.8906 58.6979 62.8906Z" fill="var(--fill-0, #87888C)"/>
<g id="Vector_5" opacity="0">
</g>
</g>
</svg>
