<svg preserveAspectRatio="none" width="100%" height="100%" overflow="visible" style="display: block;" viewBox="0 0 81 81" fill="none" xmlns="http://www.w3.org/2000/svg">
<g id="edit">
<path id="Vector" d="M50.3125 76.3073H30.1875C11.9744 76.3073 4.19271 68.5256 4.19271 50.3125V30.1875C4.19271 11.9744 11.9744 4.19271 30.1875 4.19271H36.8958C38.271 4.19271 39.4115 5.33313 39.4115 6.70833C39.4115 8.08354 38.271 9.22396 36.8958 9.22396H30.1875C14.7248 9.22396 9.22396 14.7248 9.22396 30.1875V50.3125C9.22396 65.7752 14.7248 71.276 30.1875 71.276H50.3125C65.7752 71.276 71.276 65.7752 71.276 50.3125V43.6042C71.276 42.229 72.4165 41.0885 73.7917 41.0885C75.1669 41.0885 76.3073 42.229 76.3073 43.6042V50.3125C76.3073 68.5256 68.5256 76.3073 50.3125 76.3073Z" fill="var(--fill-0, white)"/>
<path id="Vector_2" d="M28.5104 59.3352C26.4644 59.3352 24.586 58.5973 23.2108 57.2556C21.5673 55.6121 20.8629 53.2306 21.2319 50.715L22.6742 40.619C22.9425 38.6735 24.2171 36.1579 25.5923 34.7827L52.0231 8.35188C58.6979 1.67708 65.4733 1.67708 72.1481 8.35188C75.8042 12.0079 77.4477 15.731 77.1123 19.4542C76.8104 22.4729 75.2004 25.4246 72.1481 28.4433L45.7173 54.8742C44.3421 56.2494 41.8265 57.524 39.881 57.7923L29.785 59.2346C29.349 59.3352 28.9129 59.3352 28.5104 59.3352ZM55.5785 11.9073L29.1477 38.3381C28.5104 38.9754 27.7725 40.4512 27.6383 41.3233L26.196 51.4194C26.0619 52.3921 26.2631 53.1971 26.7663 53.7002C27.2694 54.2033 28.0744 54.4046 29.0471 54.2704L39.1431 52.8281C40.0152 52.694 41.5246 51.956 42.1283 51.3187L68.5592 24.8879C70.7394 22.7077 71.8798 20.7623 72.0475 18.951C72.2487 16.7708 71.1083 14.4565 68.5592 11.8737C63.1925 6.50708 59.5029 8.01646 55.5785 11.9073Z" fill="var(--fill-0, white)"/>
<path id="Vector_3" d="M66.5802 32.9715C66.3454 32.9715 66.1106 32.9379 65.9094 32.8708C57.0879 30.3887 50.0777 23.3785 47.5956 14.5571C47.2267 13.2154 47.9981 11.8402 49.3398 11.4377C50.6815 11.0688 52.0567 11.8402 52.4256 13.1819C54.4381 20.3263 60.1067 25.9948 67.251 28.0073C68.5927 28.3763 69.3642 29.785 68.9952 31.1267C68.6933 32.2671 67.6871 32.9715 66.5802 32.9715Z" fill="var(--fill-0, white)"/>
<g id="Vector_4" opacity="0">
</g>
</g>
</svg>
