<svg preserveAspectRatio="none" width="100%" height="100%" overflow="visible" style="display: block;" viewBox="0 0 81 81" fill="none" xmlns="http://www.w3.org/2000/svg">
<g id="note-favorite">
<path id="Vector" d="M26.8333 19.2865C25.4581 19.2865 24.3177 18.146 24.3177 16.7708V6.70833C24.3177 5.33313 25.4581 4.19271 26.8333 4.19271C28.2085 4.19271 29.349 5.33313 29.349 6.70833V16.7708C29.349 18.146 28.2085 19.2865 26.8333 19.2865Z" fill="var(--fill-0, white)"/>
<path id="Vector_2" d="M53.6667 19.2865C52.2915 19.2865 51.151 18.146 51.151 16.7708V6.70833C51.151 5.33313 52.2915 4.19271 53.6667 4.19271C55.0419 4.19271 56.1823 5.33313 56.1823 6.70833V16.7708C56.1823 18.146 55.0419 19.2865 53.6667 19.2865Z" fill="var(--fill-0, white)"/>
<path id="Vector_3" d="M49.2391 76.3073H26.8333C14.5906 76.3073 7.54688 69.2635 7.54688 57.0208V28.5104C7.54688 16.2677 14.5906 9.22396 26.8333 9.22396H53.6667C65.9094 9.22396 72.9531 16.2677 72.9531 28.5104V45.7173C72.9531 46.69 72.3829 47.5621 71.5443 47.9981C70.6722 48.4006 69.6325 48.2999 68.8946 47.6962C63.595 43.4699 55.4444 43.47 50.1448 47.7969C46.5223 50.6479 44.4763 54.9077 44.4763 59.57C44.4763 62.3205 45.2142 65.0038 46.6565 67.3182C47.7633 69.1294 49.1386 70.6388 50.7486 71.7792C51.6206 72.4165 52.0231 73.5568 51.6877 74.5966C51.2852 75.6029 50.346 76.3073 49.2391 76.3073ZM26.8333 14.2552C17.2404 14.2552 12.5781 18.9175 12.5781 28.5104V57.0208C12.5781 66.6138 17.2404 71.276 26.8333 71.276H43.2353C42.8998 70.84 42.5979 70.3705 42.3296 69.9009C40.4177 66.8151 39.4115 63.226 39.4115 59.5365C39.4115 53.3313 42.1619 47.6292 46.9919 43.839C52.7275 39.1767 61.2135 38.1704 67.9219 41.2562V28.5104C67.9219 18.9175 63.2596 14.2552 53.6667 14.2552H26.8333V14.2552Z" fill="var(--fill-0, white)"/>
<path id="Vector_4" d="M43.6042 39.4115H23.4792C22.104 39.4115 20.9635 38.271 20.9635 36.8958C20.9635 35.5206 22.104 34.3802 23.4792 34.3802H43.6042C44.9794 34.3802 46.1198 35.5206 46.1198 36.8958C46.1198 38.271 44.9794 39.4115 43.6042 39.4115Z" fill="var(--fill-0, white)"/>
<path id="Vector_5" d="M32.2671 56.1823H23.4792C22.104 56.1823 20.9635 55.0419 20.9635 53.6667C20.9635 52.2915 22.104 51.151 23.4792 51.151H32.2671C33.6423 51.151 34.7827 52.2915 34.7827 53.6667C34.7827 55.0419 33.6758 56.1823 32.2671 56.1823Z" fill="var(--fill-0, white)"/>
<path id="Vector_6" d="M59.5365 79.6614C55.2431 79.6614 51.1845 78.3197 47.7633 75.8376C45.6166 74.2947 43.7719 72.2823 42.3296 69.9008C40.4177 66.815 39.4115 63.226 39.4115 59.5364C39.4115 53.3312 42.1619 47.6291 46.9919 43.8389C53.9686 38.1704 64.9702 38.1367 72.014 43.7382C76.8775 47.5619 79.6615 53.3312 79.6615 59.5364C79.6615 63.226 78.6552 66.815 76.7433 69.9008C75.67 71.7456 74.2948 73.3556 72.7183 74.6637C69.1293 77.8837 64.4335 79.6614 59.5365 79.6614ZM59.5365 44.4426C56.1152 44.4426 52.761 45.6165 50.1113 47.7632C46.4888 50.6143 44.4427 54.8741 44.4427 59.5364C44.4427 62.2868 45.1806 64.9701 46.6229 67.2845C47.7298 69.0957 49.105 70.6052 50.715 71.7456C53.2977 73.6239 56.35 74.6301 59.5365 74.6301C63.2596 74.6301 66.6809 73.322 69.4313 70.8735C70.6388 69.8672 71.6114 68.6933 72.4164 67.3181C73.8587 64.9701 74.6302 62.2868 74.6302 59.5364C74.6302 54.8741 72.5507 50.5806 68.8946 47.6961C66.2113 45.5494 62.9912 44.4426 59.5365 44.4426Z" fill="var(--fill-0, white)"/>
<path id="Vector_7" d="M59.5365 70.4375C58.1613 70.4375 57.0208 69.2971 57.0208 67.9219C57.0208 64.7019 54.371 62.0521 51.151 62.0521C49.7758 62.0521 48.6354 60.9117 48.6354 59.5365C48.6354 58.1613 49.7758 57.0208 51.151 57.0208C54.371 57.0208 57.0208 54.371 57.0208 51.151C57.0208 49.7758 58.1613 48.6354 59.5365 48.6354C60.9117 48.6354 62.0521 49.7758 62.0521 51.151C62.0521 54.371 64.7019 57.0208 67.9219 57.0208C69.2971 57.0208 70.4375 58.1613 70.4375 59.5365C70.4375 60.9117 69.2971 62.0521 67.9219 62.0521C64.7019 62.0521 62.0521 64.7019 62.0521 67.9219C62.0521 69.2971 60.9117 70.4375 59.5365 70.4375ZM58.0942 59.5365C58.5973 59.9725 59.1004 60.4421 59.5365 60.9787C59.9725 60.4756 60.4421 59.9725 60.9787 59.5365C60.4756 59.1004 59.9725 58.6309 59.5365 58.0942C59.1004 58.6309 58.6309 59.1004 58.0942 59.5365Z" fill="var(--fill-0, white)"/>
<g id="Vector_8" opacity="0">
</g>
</g>
</svg>
